<svg width="221" height="45" viewBox="0 0 221 45" fill="none" xmlns="http://www.w3.org/2000/svg">
<mask id="mask0_81_1780" style="mask-type:luminance" maskUnits="userSpaceOnUse" x="46" y="2" width="43" height="41">
<path d="M68.2629 2.36941C79.1866 2.36941 88.0585 11.7812 88.0585 22.8397C88.0585 33.8982 79.1618 42.2568 68.234 42.2568C57.3062 42.2568 45.4083 31.9046 46.6674 22.0707C48.2775 9.5035 54.598 2.36523 68.2629 2.36523" fill="white"/>
</mask>
<g mask="url(#mask0_81_1780)">
<path fill-rule="evenodd" clip-rule="evenodd" d="M142.759 0.379959L143.61 0.743558L144.857 0.827145C145.257 1.52927 145.517 1.9263 145.823 2.86247C145.905 3.10905 146.132 3.96581 146.141 4.0285C146.467 6.03039 145.034 5.37842 144.708 5.33244C144.658 5.32409 142.792 4.90615 142.598 4.84764L136.282 1.80093C135.072 1.0779 134.581 0.781172 134.664 -1.08698C136.451 -0.96578 137.331 -0.648153 138.631 -0.280374C140.278 0.18771 140.782 0.246221 142.763 0.379959M177.813 15.9437C177.12 16.3282 176.728 16.3867 176.075 15.8267C170.622 15.4589 167.761 12.9555 164.524 11.0497C160.912 8.92665 149.039 6.61131 148.213 5.05243C147.899 4.45897 147.251 1.6839 147.292 0.680869C148.646 0.655793 150.595 0.175172 152.069 -0.0588694C154.69 -0.468442 155.025 0.438468 156.395 1.54181C157.613 2.51977 158.765 3.14248 159.983 4.12462C163.967 7.33434 162.241 8.09079 171.299 11.3799C173.982 12.3537 175.386 12.851 177.826 14.2386C178.672 14.7192 179.04 14.8655 179.06 16.0231L177.813 15.9395V15.9437ZM93.9414 -4.74388C94.0487 1.6839 96.0386 0.275476 95.8363 3.36817C95.4648 9.0186 90.779 9.21921 86.2874 14.6983C84.3842 17.022 85.8539 16.5748 82.5182 18.7648C79.8058 20.5451 80.5077 19.6842 80.6728 17.1557C80.8586 14.3472 82.6751 11.7184 83.8682 9.92133C90.1598 0.455185 84.6154 -0.698305 88.8016 -3.13067C90.0401 -3.84951 92.2033 -4.86926 93.9455 -4.75224L93.9414 -4.74388ZM135.027 2.62425C138.123 3.57713 138.119 4.68465 139.271 6.06382C143.445 11.0623 142.801 13.2606 145.554 17.7784C146.318 19.0322 151.111 25.7359 150.962 27.9634C150.872 29.3342 150.178 27.7837 150.537 29.7772C150.896 31.7791 150.459 31.0979 149.74 34.7799C149.567 35.6659 149.592 37.0869 148.849 37.0367C146.698 36.8904 145.179 34.596 144.283 33.3046C141.802 29.7355 143.284 33.1917 142.528 29.3844C142.103 27.2488 138.313 21.1261 138.098 19.4251C137.772 16.8882 139.878 20.2066 140.249 20.7458C141.335 22.3297 142.991 23.8301 144.369 25.1591C145.216 25.9741 144.919 26.0117 146.207 26.4087C145.975 25.2134 145.232 24.7704 144.369 24.0056C143.461 23.1948 142.978 22.5011 142.198 21.6109C141.343 20.6329 141.104 20.2902 140.398 19.1743C139.737 18.1337 139.242 17.5068 138.573 16.4703C137.013 14.063 137.764 12.3788 137.252 9.28607C136.864 6.92894 135.159 4.81003 135.027 2.62007V2.62425ZM124.351 3.4434C125.3 2.19378 125.676 2.40693 126.679 1.52927C127.617 0.710124 127.716 -0.167531 128.298 -1.20818C131.018 -0.794429 134.602 5.0984 135.374 8.36245C137.293 16.4912 134.523 17.3605 139.585 25.6564C140.146 26.5801 141.112 28.4106 141.133 29.7564C134.577 29.3175 134.329 20.7583 133.334 16.2154C132.05 10.3476 127.947 8.05318 125.362 5.13184C124.116 3.72341 124.619 4.05357 124.347 3.43922L124.351 3.4434ZM141.207 5.49962C144.869 5.7462 146.818 6.04711 146.801 8.31647C146.78 11.2462 147.082 13.0684 146.867 16.324C145.653 15.9061 144.568 12.2826 144.142 10.9578C143.325 8.41678 142.318 7.72719 141.546 6.34802C141.096 5.54559 141.385 5.91337 141.203 5.49962H141.207ZM117.424 11.8898C119.921 10.427 120.28 8.17856 121.771 5.72948C125.321 6.82446 129.412 14.1592 129.165 17.8996L128.905 21.8742C128.628 26.0869 126.176 26.9102 130.007 35.8749C130.473 36.9698 130.886 37.4421 130.82 38.8965C128.475 38.0899 124.78 34.0778 124.983 29.5098C125.139 26.0159 122.716 25.2469 121.416 23.6086C120.45 22.3966 120.247 20.6998 119.583 19.1869C118.745 17.2769 117.816 17.302 116.123 16.2028C112.432 13.8081 116.647 15.5258 111.85 13.9418C110.707 13.5657 108.51 13.5155 108.717 10.3852C108.737 10.0425 110.665 8.5547 111.062 8.16184C113.642 5.61246 115.103 -0.246939 116.689 -0.138277C117.634 -0.0755868 120.66 4.05357 120.656 4.12044C120.602 4.96049 119.215 8.7971 118.311 9.96313C117.424 11.1124 117.568 10.1387 117.415 11.8898H117.424ZM88.9295 25.3346C89.8956 24.7161 89.8048 24.1352 90.0401 22.6682C90.2093 21.6109 90.4942 20.6914 90.9318 19.7511C92.74 15.856 96.0592 14.7735 98.0037 11.8062C99.0895 10.147 99.8573 8.67172 101.05 7.10447C102.334 7.9069 103.028 8.90576 103.891 10.0592C102.372 12.5501 100.084 13.7872 97.8757 16.5957C90.4983 25.9657 95.3285 29.5934 95.1345 32.5105C94.8496 36.8403 92.0588 37.6553 90.746 40.9235C90.0236 42.7248 89.5736 44.0078 88.5415 45.2825C87.691 46.3273 86.2378 47.531 84.7269 47.7817C82.7246 42.7206 85.9571 36.9615 86.4773 33.9942C86.725 32.5941 86.3741 31.0519 85.9943 29.9486C84.9002 26.7723 85.9158 19.3039 87.3649 16.6208C89.1731 13.2815 93.9414 10.9745 95.2583 8.96845C97.9707 4.83093 96.9097 5.36588 97.9418 3.51444C101.847 4.10791 98.9532 7.16298 97.3143 10.0258C96.7941 10.9327 96.4225 11.5972 95.8569 12.2868C91.9556 17.0429 89.524 16.2488 88.9254 25.3305L88.9295 25.3346ZM75.4587 11.7728C73.2417 12.1029 72.1807 12.0695 70.7647 13.7078C68.9936 15.6428 67.8253 15.4088 65.0634 15.7264C64.3822 15.8058 64.0602 15.6721 63.9735 15.413C63.7258 14.6774 65.1047 12.9764 65.724 12.4415C66.8221 11.4886 68.2175 10.6026 70.7193 8.88068C72.2138 7.85257 73.1922 6.88715 74.5133 5.70022C75.5247 4.79331 77.5848 2.86665 78.8728 2.84575C78.7036 5.44111 78.3114 7.31344 77.7912 9.20667C77.271 11.1041 77.2297 11.5053 75.4545 11.7686L75.4587 11.7728ZM89.8171 -5.94334L97.6239 -5.41675C98.111 -2.416 97.0377 -2.49541 99.0234 -0.317987C100.056 0.814607 101.191 1.88869 103.205 2.02243C105.195 -0.589642 105.575 -0.0170765 108.366 -3.5277C109.014 -4.34267 109.27 -4.60596 110.616 -4.54745C110.455 -2.11927 108.857 -1.15803 107.619 0.212786C104.981 3.12995 102.805 2.47797 104.977 5.92173C107.321 9.64132 108.799 5.36588 110.253 2.27319C111.487 -0.351422 112.181 -0.689946 112.428 -4.42625L116.751 -4.13788C118.972 -3.6489 119.632 1.02775 123.228 2.13527C127.051 -0.100663 125.573 0.112483 127.538 -3.41068C129.623 -3.26858 129.45 -2.86737 130.601 -1.80582C131.671 -0.819505 131.856 -0.414111 133.058 0.338165C133.021 -1.94374 131.654 -0.526953 131.77 -3.12649C136.963 -2.77542 138.78 -1.12042 143.754 -0.78607C143.994 -1.57596 144.089 -1.66791 144.46 -2.27391C145.373 -1.99389 147.065 0.317268 151.615 -1.23744C152.329 -1.47984 153.084 -1.60522 153.877 -1.63865L156.742 -1.4464C160.627 -0.836222 164.92 0.948345 168.508 1.18657C168.801 0.664152 168.921 0.221144 169.214 -0.30127C170.77 0.67251 170.424 1.29105 172.723 1.49584C174.688 1.67137 175.349 1.33702 177.289 1.46658C176.34 2.61171 173.887 1.90541 172.054 2.64933C172.612 3.62311 173.957 4.31687 174.944 4.98556C175.894 5.62918 177.301 6.17667 178.598 6.64475C179.919 7.12119 185.059 8.34991 185.533 10.0049C181.971 7.96959 175.951 7.3009 172.207 4.24582C170.894 3.17592 170.391 2.23139 168.112 2.07676C167.331 1.52091 166.572 1.63793 165.445 1.6839C163.802 1.37881 162.898 1.14059 161.564 0.718482C160.4 0.350703 159.05 -0.272015 157.96 0.170992C158.649 1.38299 160.33 2.00989 161.486 3.09651C166.518 7.81914 165.086 7.16298 172.806 10.3476C174.337 10.9787 175.667 11.5178 177.095 12.3077C180.286 14.0756 178.565 14.0505 182.218 16.4076C183.907 17.4984 181.76 16.8047 184.997 19.7051C185.748 20.378 186.091 20.3404 186.301 21.4312C183.077 19.4167 181.913 17.3062 179.878 17.0053C178.916 16.3199 174.952 16.0524 173.908 16.6041C173.21 16.2279 170.82 15.7097 169.763 15.3419C165.457 13.8415 163.504 10.7823 159.104 10.3852C159.38 11.802 160.693 11.731 162.456 13.7538C163.732 15.2165 164.293 15.8016 165.098 17.7492C167.674 23.9638 169.42 23.4623 170.568 25.2887C168.141 24.9209 166.32 22.2963 165.296 20.4532C164.66 19.3122 164.396 18.351 163.694 17.2644C162.493 15.4088 160.449 13.457 158.67 12.2116C157.622 11.4802 156.887 10.8575 155.85 10.101C154.637 9.21085 150.541 6.94148 148.977 7.55166C147.953 9.38638 148.754 12.3788 148.82 14.0296C148.931 16.8381 147.812 18.723 149.6 20.2526C152.597 22.8229 156.205 24.3191 160.342 24.5949C161.098 25.134 161.593 24.9878 162.704 25.0588C164.384 25.1716 164.516 25.2845 165.928 25.6606C167.373 26.0451 167.823 25.8403 168.669 26.6887C165.577 26.4798 165.259 25.8445 160.817 25.5478L159.665 25.1633L156.643 24.9585C156.618 25.0003 156.627 25.0881 156.627 25.109L156.565 26.183C155.462 25.8445 154.335 24.783 153.378 24.1101C152.341 23.3829 151.561 22.4969 150.162 22.0664C150.203 24.5113 152.655 26.4505 152.333 29.5892C152.205 30.8179 151.404 31.9171 151.07 33.313C150.645 35.0683 150.484 35.7369 150.351 37.743C151.681 38.5747 152.907 39.2559 154.158 40.1294C157.564 42.52 160.879 45.3828 162.964 49.0313C161.614 48.8266 161.688 48.3292 160.871 47.4307C160.247 46.7411 159.838 46.4903 159.153 45.784C158.018 44.6055 156.755 43.6651 155.491 42.6913C147.49 36.5059 151.966 42.6913 152.003 44.9189C149.6 42.8752 150.673 39.7575 147.837 38.5287C145.74 37.6218 145.963 37.5926 144.361 36.3722C140.617 33.5261 144.861 40.4596 145.637 41.3414C148.634 44.7308 149.361 48.1704 149.022 53.3193C147.924 52.3999 149.175 51.5974 148.229 48.2582C146.516 42.2065 142.169 40.8399 141.707 35.3148C141.277 30.191 137.273 31.9547 134.767 28.7909C132.282 25.6523 131.699 20.5368 130.886 19.8472C129.483 29.2966 127.385 24.9418 131.605 36.7818C134.185 44.0287 134.66 38.8798 140.109 48.5424C142.945 53.5743 145.649 54.548 146.425 55.9063C139.201 53.6829 138.829 44.3171 133.351 42.4322C133.045 44.501 132.793 46.3023 132.628 48.8349C132.207 48.2707 132.273 48.4253 132.075 47.5937C131.088 43.4143 134.218 42.6161 129.47 39.8201C127.881 38.884 127.307 38.2696 126.188 36.9657C125.234 35.854 124.665 34.4664 123.938 33.1959C123.117 33.3589 122.13 34.1112 121.486 34.6378C119.913 35.925 118.926 36.9991 119.546 39.0888C119.946 40.4303 120 40.8566 120.978 41.2913C120.425 42.9463 120.173 41.4543 119.892 43.6567C119.806 44.338 119.686 46.3524 119.727 47.0127C119.797 48.2038 120.161 48.3585 120.136 49.838C120.111 51.2422 119.839 51.6727 119.661 52.6256C119.261 54.8197 120.231 56.0108 120.768 57.8998C121.498 60.466 121.577 59.9728 121.35 63.4333L120.747 63.3915C120.949 60.3113 120.792 59.9185 119.905 57.7995C117.18 51.3091 118.794 54.7403 118.914 50.0595C118.951 48.6134 118.703 48.7681 118.435 47.5811C118.051 45.8801 118.613 43.5815 118.423 41.542C117.812 34.922 116.718 37.7723 121.465 32.6401C122.58 31.4323 123.715 29.8065 123.137 28.1682C122.766 27.1108 120.842 25.5143 119.929 24.9418C117.093 28.6697 115.438 32.3517 114.604 37.2081C113.716 42.3862 108.073 45.8467 108.114 47.7985C108.155 49.6206 111.739 52.1282 110.162 56.4078C109.538 58.1046 109.097 59.1871 108.444 60.6833C107.961 61.795 107.103 63.7258 106.971 65.2304L106.368 65.1886C106.343 63.6673 106.533 63.1909 107.024 61.6696C107.433 60.3991 107.879 59.2999 108.217 58.113C109.485 53.6913 108.102 53.3402 107.615 50.8368C106.153 50.8619 106.467 51.0959 105.938 52.5211C105.109 54.7654 103.457 56.6168 102.012 58.51C99.3702 61.9705 98.8335 66.6472 97.4464 67.0525C98.2597 65.7152 98.1399 65.1133 98.6106 63.4625C98.8996 62.4386 99.3537 61.2976 99.8367 60.2737C100.803 58.2342 102.041 56.8258 103.267 55.0287C108.597 47.2301 102.211 47.6062 102.987 42.8961C103.21 41.5337 103.994 40.8817 104.32 39.4356C105.175 35.6659 101.249 33.6097 102.409 29.3719C103.09 26.8893 104.262 27.0356 104.601 22.685C104.782 20.3738 106.038 15.7306 106.058 15.0744C106.19 11.3298 102.487 15.8016 101.843 16.533C101.046 17.4441 100.419 17.7826 99.7005 18.6645C99.0647 19.4502 98.5115 20.215 97.8881 21.1762C93.1198 28.4942 98.4578 31.3863 98.8954 33.7936C99.2174 35.5698 98.3876 35.9459 99.3248 37.4463C99.8202 38.2404 100.625 39.1055 101.042 39.9622C102.347 42.6621 100.245 43.7947 99.1514 45.6586C97.9376 47.7316 99.5188 49.8045 97.1904 52.6047C96.6166 53.2901 95.6216 54.1218 95.2047 54.9158C94.3006 56.6461 95.5597 57.5446 93.7969 57.8957C94.0652 53.825 94.9652 54.3182 96.5299 51.844C98.1358 49.3072 96.7982 47.1632 98.2803 44.9858C99.5188 43.1678 101.216 41.9599 99.2009 39.2768C98.689 38.5956 97.9542 37.4923 97.7643 36.5143C97.4629 34.9387 98.0739 34.3243 96.5877 33.8145C96.0799 37.2248 93.2519 38.7252 91.2084 43.7153C90.2713 45.9972 89.2722 46.5405 87.4887 47.6355C85.1645 49.0648 85.2718 49.1358 85.0365 52.6966C84.153 51.9443 84.537 52.8596 84.5122 51.4345C81.6264 51.4846 81.6141 56.9804 78.9554 57.5112C80.2682 55.3588 81.4118 53.3151 82.8196 51.121C83.8021 49.5872 84.0787 49.4994 83.6081 47.3429C83.0879 44.9523 83.4306 40.5223 84.1613 38.1944C86.8984 29.4596 84.2604 30.9266 84.3553 25.9365C84.3883 24.3232 84.6567 22.639 84.7888 21.0843C84.8342 20.5284 85.214 19.9935 84.0003 20.1732C83.4801 20.2484 82.6338 20.6622 81.8329 21.1888C80.4911 22.0622 80.0618 23.1948 79.7191 24.4695C78.7737 28.0052 80.2806 32.732 78.4559 36.8612C77.9481 38.0105 77.304 38.8673 76.788 40.1963C76.3215 41.3916 76.2554 43.1427 75.31 43.7529C75.6527 38.5287 77.3329 38.3992 77.9811 34.993C78.0884 34.4372 77.8077 31.9797 77.7664 29.4596C77.7251 27.1485 77.721 25.5394 77.7953 25.0922C75.3307 26.5425 73.8321 31.3278 72.8991 33.7225C71.6647 36.903 71.5615 41.5295 69.6335 44.083C68.7748 45.2198 67.5776 45.3703 66.8097 46.7536C66.2111 47.8319 65.9386 49.2069 64.9231 49.5036C66.1285 45.4831 69.0267 43.7194 70.0051 39.5903L71.5574 33.4885C72.2014 31.6579 73.1716 30.1283 73.3119 27.9509C70.8597 28.3563 67.6973 32.4478 66.5084 34.5584C65.4556 36.4307 65.0758 36.8904 63.0653 37.8141C61.1373 38.7001 59.5644 39.5234 57.4713 40.0542C55.6507 40.5139 53.5866 40.819 53.2109 40.8274C53.5288 40.4429 61.385 37.9269 63.4121 36.1841C66.3639 33.6431 66.785 30.3874 71.4954 27.2237C72.0775 26.835 74.1169 25.3012 75.8013 23.8343C79.0834 20.9798 78.427 19.2788 79.4962 15.4422C79.843 14.1968 80.0494 13.4111 81.0526 11.8981C82.8815 9.13562 84.9374 6.82864 85.6846 3.42668C85.9654 2.13945 86.3823 -0.355601 84.9044 0.258758C80.2971 2.02661 81.9072 10.1345 79.0173 13.1185C77.9646 14.2051 76.1481 14.2177 74.4926 14.4642C73.1839 14.6607 72.2055 16.0148 71.2808 17.4901C70.3519 18.9737 69.4767 20.5828 68.6014 21.6861L63.7547 26.7765C63.1809 27.3491 63.119 27.5121 62.5905 28.0637C61.3685 29.3384 60.4644 30.4418 58.9534 31.4281C55.1925 33.873 51.8691 37.8809 50.515 42.3988C49.6481 41.6632 49.8256 42.0561 50.4572 40.7354C50.866 39.8828 50.0981 39.4022 50.5357 38.6416C51.6297 36.7525 56.9801 31.0352 58.7181 29.5098C59.0649 29.2089 62.5781 26.0368 64.824 23.3495C66.2978 21.59 66.7643 20.0269 67.0574 19.6633C67.7386 18.8107 67.912 17.8035 67.6437 17.1306C65.8354 16.0984 62.2809 17.7408 61.1497 19.4836C60.5759 20.3696 60.0062 21.8282 59.6181 22.9817C58.8502 25.2594 57.3269 26.9311 55.5929 28.5235C53.2976 30.634 51.671 34.7966 48.2362 35.482C49.0495 34.4121 55.403 26.6093 55.4484 26.5717C56.3154 25.8487 57.814 24.2647 58.5447 23.2575C57.909 23.3829 56.014 24.6409 54.2264 25.7484C53.8177 25.9991 53.4173 26.2416 53.0375 26.4672C50.5481 27.9467 47.3816 29.6978 44.7312 30.6006C43.1996 31.123 44.9913 29.7731 45.2142 29.539C45.4371 29.3092 47.8275 28.3939 49.6605 27.4703C51.1054 26.7431 54.8457 24.2982 56.0594 23.2366C57.1782 22.2587 57.4383 21.4604 57.9998 20.8168C58.9452 19.7302 60.0433 18.4346 61.0094 17.2393C62.285 15.6595 63.379 14.2762 63.185 13.6242C61.6864 13.6493 61.1662 14.0797 60.0392 14.7108C58.7346 15.4422 57.0915 16.3617 55.5806 17.3145C52.5586 19.2788 50.5192 20.2693 46.8243 20.0227L45.9367 20.2693C40.5904 19.9099 41.3418 23.8886 37.9442 25.878C38.1341 24.5991 38.7327 24.3859 39.3808 23.571C40.3675 22.3423 40.1115 22.1834 39.4716 21.0634C42.7413 19.5839 40.9372 20.1815 42.8941 18.4388C44.467 17.0345 45.5032 16.9718 49.2435 13.6075C50.5811 12.4038 51.6132 12.0486 53.1077 11.1668C56.0306 9.44489 57.0998 8.45857 57.8057 7.79824C58.8255 6.837 58.9699 6.21846 62.0456 2.18124C63.474 0.304731 64.6754 0.522055 64.8859 -0.882195C62.0621 0.262938 60.0144 1.24508 57.5457 3.46011C51.4026 8.96845 51.7907 6.51937 45.6683 8.47947C39.6244 10.4145 36.941 13.9 34.1791 13.946C34.5795 12.7507 34.3525 13.2857 35.4547 12.7883L39.5088 10.239C44.0583 6.89133 48.6697 7.0794 52.1045 5.72112C54.0902 4.93959 55.4237 3.1592 57.0461 1.89287C61.6121 -1.66373 67.1483 -3.32709 72.8619 -4.16296C79.5994 -5.14927 76.9242 -6.83354 83.1498 -6.41561C82.7452 -5.2036 81.9732 -5.15763 80.776 -4.55163C73.8073 -1.02429 75.244 -4.52238 73.2624 0.250399C71.5863 4.2918 69.4973 6.11816 67.9822 7.76063C66.6363 9.21921 66.9625 9.64132 67.301 9.71655C67.8212 9.83356 68.6758 8.91412 69.8771 7.82331C74.0798 4.00342 79.5705 0.948345 83.4223 -2.48287C86.2956 -5.04897 87.6828 -5.85558 89.8419 -5.96842L89.8171 -5.94334ZM48.4178 18.9445C47.1711 18.8609 46.3908 18.8651 46.3247 19.0698C46.2422 19.3206 41.6927 20.0729 45.2101 18.2173C46.0894 17.7534 46.5724 17.5987 47.3486 17.0554C48.649 16.1485 49.6646 15.2249 50.9857 14.3514C55.4897 11.522 58.0452 12.0319 62.1323 6.51101C64.3822 3.46847 68.8285 -2.34495 72.8413 -2.16524C72.6638 -0.129918 70.9876 1.56688 69.5386 3.40578C68.2175 5.08587 66.946 6.79938 65.9882 8.28304C65.2244 9.46579 64.5763 10.8366 63.3914 11.5345C61.2199 12.8134 60.774 12.6588 56.4723 15.4213C53.3677 17.4148 51.0146 19.0615 48.4261 18.9445H48.4178ZM108.246 22.3297C108.362 20.5744 108.51 19.6299 108.754 18.3134C108.998 16.9969 108.981 15.0076 110.236 15.0911C111.85 15.1998 112.808 15.5341 112.833 17.1098C117.345 16.3324 118.926 21.3476 118.794 23.3453C118.683 25.0254 114.274 29.5725 113.25 35.0306C112.523 38.909 113.023 38.9592 110.884 41.5086C110.145 42.3904 109.679 42.9839 108.911 43.8323C107.92 44.9314 107.755 45.6628 106.694 45.876C104.258 43.9786 106.917 42.4698 107.193 38.232C107.515 33.3422 103.507 33.6306 106.768 27.8715C107.416 26.7263 107.334 26.3293 107.8 25.1173C108.519 23.2575 110.719 22.9065 111.355 21.0049C109.704 21.335 109.823 22.3046 108.234 22.3297H108.246Z" fill="#7A7367"/>
</g>
<path d="M206.059 44.4219C209.189 44.4219 212.5 43.9121 215.451 42.0982C219.704 39.436 221.004 35.5242 221.004 32.2392C221.004 26.8563 218.465 22.9486 211.315 17.7913L209.659 16.6002C204.755 13.0311 203.397 11.0501 203.397 8.44221C203.397 5.04443 206.055 2.60789 210.427 2.60789C214.267 2.60789 215.98 4.30887 216.867 5.38296C218.11 6.85407 218.403 8.61357 218.403 9.12344C218.403 9.80467 218.581 10.1432 218.994 10.1432C219.464 10.1432 219.642 9.69183 219.642 8.44221C219.642 4.02468 219.877 2.38221 219.877 1.64247C219.877 1.24544 219.58 1.07408 219.051 0.961242C217.516 0.564207 215.034 0 211.195 0C202.984 0 197.547 4.47605 197.547 10.7074C197.547 15.2963 199.793 19.2625 206.291 24.1355L209.007 26.175C213.912 29.857 214.795 32.4649 214.795 35.24C214.795 38.2407 212.194 41.697 206.877 41.697C203.215 41.697 199.731 40.1674 198.43 35.9755C198.133 35.0143 197.898 33.8232 197.898 33.0876C197.898 32.6363 197.84 32.1264 197.307 32.1264C196.833 32.1264 196.659 32.7491 196.597 33.6017C196.539 34.5086 196.3 37.9064 196.3 41.0241C196.3 42.2696 196.477 42.5538 197.423 42.9508C199.962 44.0291 202.62 44.4219 206.047 44.4219M166.584 27.199C166.584 32.4106 166.584 36.8866 166.287 39.2647C166.109 40.9071 165.754 42.1526 164.573 42.3824C164.041 42.4953 163.331 42.6081 162.447 42.6081C161.737 42.6081 161.502 42.7795 161.502 43.0595C161.502 43.4565 161.915 43.6237 162.683 43.6237C165.048 43.6237 168.768 43.4523 170.126 43.4523C171.782 43.4523 175.501 43.6237 179.403 43.6237C180.051 43.6237 180.525 43.4523 180.525 43.0595C180.525 42.7753 180.232 42.6081 179.58 42.6081C178.692 42.6081 177.396 42.4953 176.566 42.3824C174.795 42.1567 174.44 40.9113 174.263 39.3232C173.965 36.8866 173.965 32.4106 173.965 27.199V3.97035L181.409 4.1417C186.668 4.25454 188.262 5.84268 188.382 7.3138L188.44 7.93652C188.497 8.78492 188.617 9.06911 189.088 9.06911C189.443 9.06911 189.562 8.73059 189.62 8.1622C189.62 6.69108 189.798 2.77924 189.798 1.59232C189.798 0.743918 189.74 0.401214 189.323 0.401214C189.088 0.401214 188.613 0.514056 187.729 0.685408C186.842 0.798249 185.541 0.969601 183.651 0.969601H160.255C158.307 0.969601 156.061 0.85676 154.347 0.685408C152.869 0.572566 152.279 0.00417941 151.808 0.00417941C151.453 0.00417941 151.276 0.342704 151.098 1.08244C150.979 1.53381 149.86 6.69108 149.86 7.59799C149.86 8.22071 149.98 8.5049 150.392 8.5049C150.747 8.5049 150.925 8.27922 151.041 7.82367C151.16 7.37231 151.453 6.69108 152.044 5.8385C152.931 4.59307 154.347 4.30887 157.774 4.19603L166.576 3.97035V27.199H166.584ZM124.875 41.5884C113.534 41.5884 106.739 32.2392 106.739 20.4577C106.739 6.35256 114.48 2.72491 121.271 2.72491C130.96 2.72491 138.581 10.5987 138.581 23.2913C138.581 39.6659 129.012 41.5925 124.875 41.5925V41.5884ZM122.394 44.4219C137.4 44.4219 146.85 34.1659 146.85 21.1933C146.85 8.22071 137.694 0.00417941 122.984 0.00417941C105.261 0.00417941 98.5855 12.5254 98.5855 22.2131C98.5855 31.9007 105.439 44.4219 122.394 44.4219ZM70.1121 41.5884C58.7715 41.5884 51.9762 32.2392 51.9762 20.4577C51.9762 6.35256 59.7169 2.72491 66.5081 2.72491C76.1973 2.72491 83.8183 10.5987 83.8183 23.2913C83.8183 39.6659 74.2488 41.5925 70.1121 41.5925V41.5884ZM67.631 44.4219C82.6376 44.4219 92.0875 34.1659 92.0875 21.1933C92.0875 8.22071 82.9307 0.00417941 68.2213 0.00417941C50.4982 0.00417941 43.8227 12.5254 43.8227 22.2131C43.8227 31.9007 50.6758 44.4219 67.631 44.4219ZM12.9424 4.48022C12.9424 4.02886 13.0622 3.799 13.475 3.68616C14.0654 3.5148 15.1305 3.46047 16.6043 3.46047C20.0887 3.46047 25.6413 5.78417 25.6413 13.8294C25.6413 18.4767 23.928 21.0805 22.157 22.3259C21.0918 23.0615 20.324 23.2871 17.9625 23.2871C16.4846 23.2871 14.7135 23.1158 13.4709 22.7229C13.058 22.5516 12.9383 22.3259 12.9383 21.7032V4.48022H12.9424ZM5.96962 27.199C5.96962 32.4106 5.96962 36.8866 5.67238 39.2647C5.43707 40.9071 5.13982 42.1526 3.95911 42.3824C3.42655 42.4953 2.7206 42.6081 1.833 42.6081C1.12292 42.6081 0.8876 42.7795 0.8876 43.0595C0.8876 43.4565 1.30044 43.6237 2.06831 43.6237C4.42974 43.6237 8.15353 43.4523 9.27645 43.4523C10.1641 43.4523 14.536 43.6237 17.9625 43.6237C18.7304 43.6237 19.1433 43.4523 19.1433 43.0595C19.1433 42.7753 18.9079 42.6081 18.4332 42.6081C17.7231 42.6081 16.4227 42.4953 15.5392 42.3824C13.7681 42.1567 13.4131 40.9113 13.2356 39.2647C12.9424 36.8866 12.9424 32.4106 12.9424 27.1405V26.3464C12.9424 26.0079 13.12 25.895 13.4131 25.895L18.5529 26.0079C18.9657 26.0079 19.3208 26.0622 19.618 26.4049C20.3859 27.2533 23.1024 31.1066 25.4679 34.2244C28.7747 38.5876 31.0206 41.2498 33.5595 42.5538C35.0953 43.3478 36.5732 43.6279 39.8801 43.6279H45.4905C46.2006 43.6279 46.6134 43.515 46.6134 43.0637C46.6134 42.7795 46.3781 42.6123 45.9034 42.6123C45.4286 42.6123 44.9002 42.558 44.2479 42.4409C43.3603 42.2696 40.9411 41.8725 37.6301 38.5876C34.1458 35.077 30.0669 30.0325 24.8115 23.6884C30.777 19.041 32.61 15.1918 32.61 10.9958C32.61 7.20096 30.2486 4.30887 28.5931 3.23479C25.4019 1.13677 21.4469 0.798249 17.7231 0.798249C15.8901 0.798249 11.4026 0.969601 9.39205 0.969601C8.14941 0.969601 4.42974 0.798249 1.30044 0.798249C0.412837 0.798249 0 0.91109 0 1.30813C0 1.70516 0.35504 1.818 1.00319 1.818C1.82887 1.818 2.83619 1.87233 3.30683 1.98935C5.25542 2.38639 5.73018 3.2933 5.84577 5.21996C5.9655 7.03379 5.9655 8.61775 5.9655 17.2313V27.2032L5.96962 27.199Z" fill="#7A7367"/>
</svg>
