<svg width="139" height="50" viewBox="0 0 139 50" fill="none" xmlns="http://www.w3.org/2000/svg">
<mask id="mask0_2001_191" style="mask-type:luminance" maskUnits="userSpaceOnUse" x="29" y="1" width="27" height="27">
<path d="M42.9345 1.54716C49.805 1.54716 55.3851 7.69148 55.3851 14.9108C55.3851 22.1301 49.7895 27.5869 42.9163 27.5869C36.0432 27.5869 28.5598 20.8287 29.3518 14.4088C30.3645 6.20451 34.3398 1.54443 42.9345 1.54443" fill="white"/>
</mask>
<g mask="url(#mask0_2001_191)">
<path fill-rule="evenodd" clip-rule="evenodd" d="M89.7897 0.248568L90.3246 0.485937L91.1087 0.540504C91.3606 0.998873 91.5242 1.25807 91.7163 1.86923C91.7682 2.0302 91.9111 2.58952 91.9163 2.63045C92.1214 3.93734 91.2204 3.51171 91.0153 3.4817C90.9841 3.47625 89.8104 3.20341 89.6884 3.16521L85.7156 1.17622C84.9548 0.704207 84.6458 0.510492 84.6978 -0.709095C85.8221 -0.629972 86.3752 -0.422615 87.1931 -0.182518C88.2291 0.123062 88.5459 0.161259 89.7923 0.248568M111.837 10.4091C111.401 10.6601 111.154 10.6983 110.744 10.3327C107.314 10.0926 105.515 8.45827 103.479 7.21413C101.207 5.82811 93.7391 4.31659 93.2197 3.2989C93.0224 2.91147 92.6147 1.09982 92.6407 0.445011C93.4924 0.428641 94.718 0.114877 95.6449 -0.0379128C97.2938 -0.305295 97.5041 0.286765 98.3662 1.00706C99.1321 1.6455 99.8566 2.05203 100.623 2.6932C103.128 4.7886 102.043 5.28244 107.74 7.42967C109.428 8.06539 110.31 8.39007 111.845 9.29589C112.377 9.60965 112.608 9.70515 112.621 10.4609L111.837 10.4063V10.4091ZM59.0851 -3.09643C59.1526 1.09982 60.4042 0.180358 60.277 2.19936C60.0433 5.88814 57.0961 6.0191 54.2711 9.59601C53.0741 11.113 53.9984 10.8211 51.9004 12.2507C50.1944 13.413 50.6359 12.851 50.7397 11.2003C50.8566 9.36683 51.9991 7.65067 52.7495 6.47747C56.7067 0.297678 53.2195 -0.455356 55.8524 -2.04328C56.6314 -2.51256 57.992 -3.17828 59.0877 -3.10189L59.0851 -3.09643ZM84.9263 1.71371C86.8737 2.33578 86.8711 3.0588 87.5956 3.95917C90.2207 7.22232 89.8156 8.65745 91.5475 11.6068C92.0279 12.4253 95.0425 16.8017 94.9491 18.2559C94.8919 19.1508 94.4557 18.1386 94.6816 19.44C94.9075 20.7469 94.6323 20.3022 94.1805 22.7059C94.0714 23.2843 94.087 24.212 93.6196 24.1792C92.2668 24.0837 91.3113 22.5858 90.7478 21.7428C89.1873 19.4127 90.1194 21.6691 89.6443 19.1836C89.3768 17.7893 86.9931 13.7923 86.8581 12.6818C86.653 11.0257 87.9772 13.192 88.2109 13.544C88.8938 14.578 89.9351 15.5575 90.8023 16.4252C91.3346 16.9572 91.1477 16.9817 91.9578 17.2409C91.8124 16.4606 91.345 16.1714 90.8023 15.6721C90.2311 15.1428 89.9273 14.6899 89.4365 14.1088C88.899 13.4703 88.7484 13.2466 88.3044 12.5181C87.889 11.8387 87.5774 11.4295 87.1567 10.7528C86.1752 9.1813 86.6478 8.08176 86.3258 6.06275C86.0817 4.52394 85.0094 3.14065 84.9263 1.71098V1.71371ZM78.2115 2.24847C78.8087 1.43269 79.045 1.57183 79.676 0.998873C80.2654 0.46411 80.3277 -0.108851 80.6939 -0.788218C82.405 -0.518109 84.6588 3.32891 85.1444 5.45978C86.3518 10.7665 84.6095 11.334 87.7929 16.7498C88.146 17.3528 88.7536 18.5478 88.7666 19.4264C84.6432 19.1399 84.4874 13.5522 83.8617 10.5864C83.0541 6.75576 80.4731 5.25788 78.8477 3.35074C78.0635 2.43127 78.3803 2.64682 78.2089 2.24574L78.2115 2.24847ZM88.8133 3.59084C91.1165 3.75181 92.3421 3.94826 92.3317 5.42977C92.3187 7.34237 92.5083 8.53194 92.3733 10.6574C91.6099 10.3845 90.927 8.019 90.6595 7.15411C90.1454 5.49525 89.5118 5.04507 89.0263 4.1447C88.7432 3.62085 88.925 3.86095 88.8107 3.59084H88.8133ZM73.8545 7.76254C75.4254 6.8076 75.6513 5.33973 76.5887 3.7409C78.8217 4.45574 81.3949 9.24405 81.2391 11.686L81.0756 14.2806C80.9016 17.0309 79.3592 17.5683 81.7688 23.4207C82.0622 24.1356 82.3219 24.4439 82.2804 25.3934C80.8055 24.8668 78.4816 22.2475 78.6088 19.2654C78.7075 16.9845 77.1833 16.4825 76.3654 15.4129C75.7578 14.6217 75.6305 13.514 75.2125 12.5263C74.6854 11.2794 74.1011 11.2958 73.0365 10.5782C70.7152 9.01487 73.3663 10.1362 70.3491 9.10217C69.6298 8.85662 68.2484 8.82388 68.3783 6.78032C68.3913 6.55659 69.6039 5.58529 69.8531 5.32882C71.476 3.6645 72.3952 -0.16069 73.3923 -0.0897522C73.9869 -0.0488267 75.8902 2.64682 75.8876 2.69047C75.8538 3.23888 74.9814 5.74353 74.4127 6.50475C73.8545 7.25506 73.9453 6.61934 73.8493 7.76254H73.8545ZM55.9329 16.5397C56.5405 16.1359 56.4834 15.7567 56.6314 14.799C56.7378 14.1088 56.917 13.5085 57.1922 12.8946C58.3295 10.3518 60.4172 9.64512 61.6402 7.70797C62.3231 6.6248 62.806 5.66168 63.5564 4.63854C64.364 5.16239 64.8002 5.81447 65.3429 6.5675C64.3873 8.19362 62.9488 9.00122 61.5597 10.8347C56.9196 16.9517 59.9576 19.32 59.8355 21.2244C59.6564 24.051 57.9011 24.583 57.0754 26.7166C56.621 27.8926 56.338 28.7302 55.6888 29.5623C55.1539 30.2444 54.2399 31.0302 53.2896 31.1939C52.0302 27.8898 54.0634 24.1301 54.3905 22.193C54.5463 21.279 54.3256 20.2722 54.0867 19.5519C53.3986 17.4783 54.0374 12.6027 54.9488 10.8511C56.0861 8.67109 59.0851 7.16502 59.9134 5.8554C61.6194 3.1543 60.9521 3.50353 61.6012 2.29486C64.0576 2.68229 62.2374 4.67673 61.2065 6.54568C60.8794 7.13774 60.6457 7.57155 60.2899 8.02173C57.8362 11.1266 56.3068 10.6082 55.9303 16.537L55.9329 16.5397ZM47.4603 7.68614C46.0659 7.90168 45.3986 7.87986 44.5079 8.94938C43.394 10.2126 42.6592 10.0598 40.9221 10.2672C40.4936 10.319 40.2911 10.2317 40.2366 10.0626C40.0808 9.58237 40.948 8.47192 41.3375 8.12268C42.0282 7.50061 42.9059 6.9222 44.4794 5.7981C45.4193 5.12692 46.0347 4.49666 46.8656 3.7218C47.5018 3.12974 48.7975 1.87196 49.6076 1.85831C49.5012 3.55264 49.2545 4.77496 48.9273 6.01091C48.6001 7.2496 48.5742 7.51153 47.4577 7.68341L47.4603 7.68614ZM56.4911 -3.87948L61.4013 -3.5357C61.7077 -1.57672 61.0326 -1.62856 62.2815 -0.207073C62.9307 0.532319 63.6447 1.23351 64.9118 1.32082C66.1634 -0.384418 66.4023 -0.0106292 68.1576 -2.30247C68.5652 -2.83451 68.7262 -3.00639 69.5727 -2.9682C69.4714 -1.38301 68.4666 -0.755478 67.6876 0.139432C66.0284 2.04384 64.66 1.61822 66.0258 3.8664C67.5006 6.29467 68.4302 3.50353 69.3442 1.48453C70.1206 -0.2289 70.5568 -0.449899 70.7126 -2.88907L73.4312 -2.70082C74.8282 -2.38159 75.2436 0.671467 77.5053 1.39449C79.9097 -0.065197 78.9801 0.0739508 80.2161 -2.22608C81.5274 -2.13331 81.4183 -1.87139 82.1427 -1.17838C82.8153 -0.534479 82.9321 -0.269826 83.6877 0.221283C83.6643 -1.26841 82.8049 -0.343492 82.8776 -2.04055C86.1441 -1.81136 87.2866 -0.730923 90.4154 -0.512652C90.566 -1.02832 90.6258 -1.08834 90.8595 -1.48396C91.4333 -1.30115 92.4979 0.207642 95.3593 -0.807317C95.8085 -0.965564 96.2837 -1.04742 96.7822 -1.06924L98.5843 -0.943737C101.028 -0.545393 103.728 0.619628 105.985 0.775146C106.169 0.434098 106.244 0.144888 106.429 -0.196159C107.407 0.439554 107.189 0.843355 108.636 0.977046C109.872 1.09164 110.287 0.873367 111.507 0.957947C110.91 1.70552 109.368 1.24443 108.215 1.73008C108.566 2.36579 109.412 2.81871 110.033 3.25525C110.63 3.67542 111.515 4.03284 112.331 4.33842C113.161 4.64945 116.394 5.4516 116.693 6.53204C114.452 5.20331 110.666 4.76677 108.311 2.77232C107.485 2.07386 107.169 1.45724 105.735 1.35629C105.244 0.993416 104.767 1.06981 104.058 1.09982C103.024 0.900651 102.456 0.745133 101.617 0.469566C100.885 0.229469 100.036 -0.177061 99.3503 0.112148C99.7839 0.903379 100.841 1.31264 101.568 2.02202C104.733 5.10509 103.832 4.67673 108.688 6.75576C109.651 7.16775 110.487 7.51971 111.385 8.03538C113.393 9.18948 112.31 9.17311 114.608 10.7119C115.67 11.424 114.32 10.9711 116.355 12.8646C116.828 13.3039 117.043 13.2793 117.176 13.9914C115.148 12.6764 114.416 11.2985 113.135 11.1021C112.53 10.6546 110.038 10.48 109.381 10.8402C108.942 10.5946 107.439 10.2563 106.774 10.0162C104.066 9.03669 102.837 7.03952 100.07 6.78032C100.243 7.70524 101.069 7.65886 102.178 8.9794C102.98 9.93433 103.333 10.3163 103.84 11.5877C105.46 15.6448 106.558 15.3174 107.28 16.5097C105.753 16.2696 104.608 14.5562 103.964 13.353C103.565 12.6081 103.398 11.9806 102.957 11.2712C102.201 10.0598 100.916 8.78568 99.7969 7.97262C99.1373 7.49516 98.6751 7.08863 98.0234 6.59479C97.26 6.01364 94.6842 4.53213 93.7001 4.93047C93.0562 6.12823 93.5599 8.08176 93.6014 9.15947C93.6715 10.9929 92.9679 12.2234 94.0922 13.222C95.9773 14.9 98.2467 15.8768 100.848 16.0568C101.324 16.4088 101.635 16.3133 102.334 16.3597C103.391 16.4333 103.474 16.507 104.362 16.7526C105.27 17.0036 105.553 16.8699 106.086 17.4237C104.141 17.2873 103.941 16.8726 101.147 16.6789L100.423 16.4279L98.522 16.2942C98.5064 16.3215 98.5116 16.3788 98.5116 16.3924L98.4726 17.0936C97.7793 16.8726 97.0705 16.1796 96.4681 15.7403C95.8163 15.2656 95.3256 14.6872 94.4453 14.4062C94.4713 16.0023 96.0137 17.2682 95.8111 19.3172C95.7306 20.1194 95.2269 20.837 95.0166 21.7482C94.7491 22.8942 94.6479 23.3307 94.5648 24.6403C95.4009 25.1833 96.1721 25.628 96.9588 26.1982C99.101 27.7589 101.186 29.6278 102.497 32.0097C101.648 31.876 101.695 31.5513 101.181 30.9647C100.789 30.5145 100.532 30.3508 100.101 29.8897C99.3866 29.1203 98.5921 28.5064 97.7975 27.8707C92.7653 23.8327 95.58 27.8707 95.6034 29.325C94.0922 27.9908 94.7673 25.9554 92.9835 25.1533C91.6644 24.5612 91.8046 24.5421 90.7971 23.7454C88.442 21.8874 91.1113 26.4138 91.5995 26.9895C93.4846 29.2022 93.9416 31.4476 93.7287 34.809C93.038 34.2088 93.8247 33.6849 93.2301 31.5049C92.1525 27.5542 89.4184 26.6621 89.1275 23.0551C88.8575 19.7101 86.3388 20.8615 84.7627 18.7961C83.1995 16.7471 82.8334 13.4076 82.3219 12.9574C81.4391 19.1263 80.12 16.2833 82.7737 24.0128C84.3966 28.7438 84.6952 25.3824 88.1227 31.6905C89.9065 34.9754 91.6073 35.6112 92.0954 36.4979C87.5514 35.0464 87.3177 28.9321 83.8721 27.7016C83.6799 29.0521 83.5215 30.2281 83.4177 31.8815C83.1528 31.5131 83.1944 31.6141 83.0697 31.0711C82.4491 28.3427 84.4173 27.8216 81.4313 25.9963C80.4316 25.3852 80.0707 24.9841 79.367 24.1328C78.7672 23.4071 78.4089 22.5013 77.9519 21.6718C77.4351 21.7782 76.8146 22.2694 76.4095 22.6131C75.4202 23.4535 74.7996 24.1547 75.1891 25.5189C75.441 26.3947 75.4747 26.673 76.0901 26.9567C75.7422 28.0372 75.5838 27.0631 75.4072 28.501C75.3527 28.9457 75.2774 30.2608 75.3034 30.6919C75.3475 31.4695 75.576 31.5704 75.5604 32.5363C75.5448 33.453 75.3735 33.734 75.2618 34.3561C75.0099 35.7885 75.6201 36.5661 75.9577 37.7993C76.4173 39.4745 76.4666 39.1526 76.3238 41.4117L75.9447 41.3844C76.0719 39.3736 75.9733 39.1171 75.415 37.7338C73.7013 33.4967 74.7165 35.7367 74.7918 32.6809C74.8152 31.7368 74.6594 31.8378 74.4906 31.0629C74.2491 29.9525 74.6023 28.4519 74.4828 27.1204C74.0985 22.7987 73.4104 24.6594 76.3965 21.309C77.0976 20.5205 77.8116 19.4591 77.4481 18.3896C77.2144 17.6993 76.0044 16.6571 75.4306 16.2833C73.6467 18.717 72.6055 21.1207 72.081 24.2911C71.5227 27.6716 67.9732 29.9307 67.9992 31.2048C68.0251 32.3944 70.279 34.0314 69.2871 36.8253C68.895 37.933 68.6172 38.6397 68.2069 39.6164C67.9031 40.3422 67.363 41.6027 67.2799 42.5849L66.9008 42.5576C66.8853 41.5645 67.0047 41.2535 67.3137 40.2603C67.5707 39.4309 67.8512 38.7133 68.0641 37.9385C68.8612 35.0518 67.9914 34.8227 67.685 33.1883C66.7658 33.2047 66.9631 33.3575 66.6308 34.2879C66.1089 35.753 65.0702 36.9617 64.1614 38.1977C62.4996 40.4568 62.1621 43.5098 61.2896 43.7745C61.8012 42.9014 61.7258 42.5085 62.0219 41.4308C62.2036 40.7623 62.4892 40.0175 62.793 39.349C63.4006 38.0176 64.1796 37.0981 64.9508 35.9249C68.303 30.8338 64.2861 31.0793 64.7742 28.0044C64.9144 27.115 65.4078 26.6893 65.6129 25.7453C66.1504 23.2843 63.6811 21.9419 64.4107 19.1754C64.8391 17.5547 65.5766 17.6502 65.7895 14.81C65.9037 13.3012 66.6931 10.2699 66.7061 9.84157C66.7892 7.39693 64.46 10.3163 64.055 10.7938C63.5538 11.3886 63.1592 11.6096 62.7074 12.1852C62.3075 12.6982 61.9595 13.1975 61.5675 13.825C58.5684 18.6024 61.9258 20.4904 62.201 22.062C62.4036 23.2216 61.8816 23.4671 62.4711 24.4466C62.7827 24.965 63.289 25.5298 63.5512 26.0891C64.3718 27.8516 63.0501 28.591 62.362 29.8079C61.5986 31.1612 62.5931 32.5144 61.1286 34.3425C60.7677 34.7899 60.1419 35.3329 59.8797 35.8513C59.311 36.9808 60.103 37.5674 58.9943 37.7966C59.163 35.1391 59.7291 35.4611 60.7132 33.8459C61.7233 32.1898 60.882 30.7901 61.8141 29.3686C62.5931 28.1818 63.6603 27.3933 62.3932 25.6416C62.0712 25.1969 61.609 24.4766 61.4896 23.8382C61.3 22.8096 61.6843 22.4085 60.7495 22.0756C60.4302 24.302 58.6515 25.2815 57.3662 28.5392C56.7768 30.0289 56.1484 30.3836 55.0267 31.0984C53.5648 32.0315 53.6323 32.0779 53.4843 34.4025C52.9286 33.9114 53.1701 34.5089 53.1545 33.5785C51.3395 33.6112 51.3317 37.1991 49.6596 37.5456C50.4853 36.1405 51.2045 34.8063 52.09 33.3739C52.7079 32.3726 52.8819 32.3153 52.5859 30.9074C52.2587 29.3468 52.4742 26.4547 52.9338 24.935C54.6554 19.2327 52.9962 20.1903 53.0559 16.9326C53.0767 15.8795 53.2454 14.7799 53.3285 13.765C53.3571 13.4021 53.596 13.0529 52.8326 13.1702C52.5054 13.2193 51.9731 13.4894 51.4694 13.8332C50.6255 14.4034 50.3554 15.1428 50.1399 15.975C49.5453 18.2832 50.4931 21.369 49.3454 24.0646C49.026 24.8149 48.6209 25.3743 48.2964 26.2419C48.0029 27.0222 47.9614 28.1654 47.3668 28.5637C47.5823 25.1533 48.6391 25.0687 49.0468 22.845C49.1143 22.4822 48.9377 20.8779 48.9117 19.2327C48.8858 17.7239 48.8832 16.6734 48.9299 16.3815C47.3798 17.3283 46.4372 20.4523 45.8504 22.0156C45.074 24.0919 45.0091 27.1122 43.7965 28.7793C43.2564 29.5214 42.5034 29.6196 42.0204 30.5227C41.6439 31.2266 41.4725 32.1243 40.8338 32.318C41.592 29.6933 43.4148 28.5419 44.0302 25.8463L45.0065 21.8628C45.4116 20.6678 46.0217 19.6692 46.11 18.2477C44.5677 18.5124 42.5787 21.1835 41.8309 22.5613C41.1687 23.7836 40.9299 24.0837 39.6653 24.6867C38.4527 25.2651 37.4634 25.8026 36.147 26.1491C35.0019 26.4492 33.7036 26.6484 33.4673 26.6539C33.6672 26.4029 38.6085 24.7604 39.8834 23.6226C41.74 21.9638 42.0048 19.8384 44.9675 17.773C45.3337 17.5192 46.6164 16.5179 47.6758 15.5603C49.74 13.6968 49.3272 12.5863 49.9997 10.0817C50.2178 9.26861 50.3476 8.75567 50.9786 7.76799C52.1289 5.96453 53.422 4.45846 53.892 2.23756C54.0685 1.39722 54.3308 -0.231628 53.4012 0.169444C50.5034 1.32355 51.5161 6.61662 49.6985 8.56468C49.0364 9.27406 47.8939 9.28225 46.8526 9.44322C46.0295 9.57146 45.4141 10.4555 44.8325 11.4186C44.2483 12.3871 43.6978 13.4376 43.1473 14.1579L40.099 17.481C39.738 17.8548 39.6991 17.9612 39.3667 18.3214C38.5981 19.1535 38.0295 19.8738 37.0791 20.5177C34.7136 22.1138 32.6234 24.7304 31.7717 27.6797C31.2264 27.1995 31.3381 27.456 31.7354 26.5938C31.9924 26.0373 31.5095 25.7235 31.7847 25.2269C32.4728 23.9937 35.838 20.2613 36.9311 19.2654C37.1492 19.069 39.3589 16.9981 40.7715 15.2438C41.6984 14.0951 41.9919 13.0747 42.1762 12.8373C42.6047 12.2807 42.7137 11.6232 42.5449 11.1839C41.4076 10.51 39.172 11.5823 38.4605 12.72C38.0996 13.2984 37.7413 14.2506 37.4972 15.0037C37.0142 16.4906 36.0561 17.582 34.9655 18.6215C33.5218 19.9993 32.4988 22.7168 30.3384 23.1643C30.8499 22.4658 34.8461 17.3719 34.8746 17.3474C35.4199 16.8753 36.3625 15.8413 36.8221 15.1837C36.4222 15.2656 35.2304 16.0868 34.1061 16.8099C33.849 16.9736 33.5971 17.1318 33.3582 17.2791C31.7925 18.245 29.8009 19.3882 28.1339 19.9775C27.1706 20.3186 28.2975 19.4373 28.4377 19.2845C28.5779 19.1344 30.0814 18.5369 31.2342 17.934C32.143 17.4592 34.4955 15.8631 35.2589 15.1701C35.9626 14.5317 36.1262 14.0105 36.4793 13.5904C37.0739 12.881 37.7646 12.0352 38.3722 11.2549C39.1746 10.2235 39.8627 9.32044 39.7406 8.89482C38.7981 8.91119 38.4709 9.19221 37.762 9.6042C36.9415 10.0817 35.9081 10.6819 34.9577 11.304C33.057 12.5863 31.7743 13.2329 29.4504 13.072L28.8921 13.2329C25.5296 12.9983 26.0021 15.5957 23.8651 16.8944C23.9846 16.0596 24.3611 15.9204 24.7688 15.3884C25.3893 14.5862 25.2284 14.4825 24.8259 13.7513C26.8824 12.7855 25.7477 13.1757 26.9784 12.0379C27.9677 11.1212 28.6195 11.0803 30.972 8.8839C31.8133 8.09813 32.4624 7.86622 33.4024 7.29053C35.2408 6.16643 35.9133 5.52253 36.3573 5.09145C36.9986 4.46392 37.0895 4.06012 39.024 1.4245C39.9224 0.199457 40.678 0.341332 40.8104 -0.575405C39.0344 0.172173 37.7465 0.813343 36.1937 2.25939C32.33 5.8554 32.5741 4.25656 28.7233 5.53618C24.922 6.79942 23.2342 9.07489 21.4971 9.1049C21.7489 8.32458 21.6061 8.67382 22.2994 8.34914L24.8493 6.68483C27.7107 4.49939 30.6111 4.62217 32.7714 3.73544C34.0204 3.22523 34.8591 2.06294 35.8795 1.23624C38.7513 -1.08561 42.2333 -2.17151 45.827 -2.71719C50.0646 -3.36108 48.382 -4.46062 52.2977 -4.18779C52.0432 -3.39655 51.5576 -3.36654 50.8046 -2.97093C46.4216 -0.66817 47.3252 -2.95183 46.0789 0.163987C45.0247 2.80233 43.7108 3.99464 42.7579 5.06689C41.9114 6.0191 42.1165 6.29467 42.3294 6.34378C42.6566 6.42017 43.1941 5.81993 43.9497 5.10782C46.593 2.61408 50.0464 0.619627 52.469 -1.62038C54.2763 -3.2956 55.1487 -3.82218 56.5067 -3.89585L56.4911 -3.87948ZM30.4527 12.368C29.6685 12.3135 29.1777 12.3162 29.1362 12.4499C29.0843 12.6136 26.2228 13.1047 28.4351 11.8933C28.9882 11.5905 29.292 11.4895 29.7802 11.1348C30.5981 10.5428 31.2368 9.93979 32.0677 9.36956C34.9006 7.52244 36.5079 7.8553 39.0785 4.25111C40.4936 2.26484 43.2901 -1.53034 45.814 -1.41302C45.7024 -0.0842953 44.6482 1.02343 43.7368 2.22392C42.9059 3.32073 42.1061 4.43937 41.5037 5.40794C41.0233 6.18007 40.6157 7.07498 39.8705 7.53062C38.5047 8.36551 38.2242 8.26456 35.5186 10.068C33.566 11.3695 32.0859 12.4444 30.4579 12.368H30.4527ZM68.0823 14.578C68.155 13.4321 68.2485 12.8155 68.4017 11.9561C68.5549 11.0966 68.5445 9.79791 69.3338 9.85248C70.3491 9.92342 70.9515 10.1417 70.9671 11.1703C73.8051 10.6628 74.7996 13.9369 74.7165 15.241C74.6464 16.3378 71.8733 19.3063 71.2293 22.8696C70.7723 25.4015 71.0865 25.4343 69.7415 27.0986C69.2767 27.6743 68.9833 28.0617 68.5003 28.6156C67.8771 29.3331 67.7733 29.8106 67.106 29.9498C65.574 28.7111 67.2462 27.7261 67.4201 24.9595C67.6227 21.7673 65.1014 21.9556 67.1527 18.1959C67.5604 17.4483 67.5084 17.1891 67.8018 16.3979C68.2536 15.1837 69.6376 14.9546 70.0375 13.7131C68.9989 13.9287 69.0742 14.5617 68.0745 14.578H68.0823Z" fill="white"/>
</g>
<path d="M129.603 29C131.571 29 133.654 28.6671 135.51 27.483C138.185 25.745 139.003 23.1913 139.003 21.0468C139.003 17.5326 137.406 14.9816 132.908 11.6147L131.867 10.8371C128.782 8.5071 127.928 7.21385 127.928 5.51134C127.928 3.29316 129.6 1.70251 132.35 1.70251C134.765 1.70251 135.843 2.81296 136.401 3.51416C137.182 4.47455 137.367 5.6232 137.367 5.95606C137.367 6.40079 137.478 6.62179 137.738 6.62179C138.034 6.62179 138.146 6.32712 138.146 5.51134C138.146 2.62743 138.294 1.55518 138.294 1.07225C138.294 0.813058 138.107 0.701195 137.774 0.627528C136.809 0.368332 135.248 0 132.833 0C127.669 0 124.249 2.9221 124.249 6.99012C124.249 9.98589 125.661 12.5751 129.748 15.7564L131.457 17.0879C134.542 19.4916 135.097 21.1941 135.097 23.0057C135.097 24.9647 133.462 27.2211 130.117 27.2211C127.814 27.2211 125.622 26.2225 124.805 23.4859C124.618 22.8584 124.47 22.0808 124.47 21.6006C124.47 21.306 124.433 20.9731 124.098 20.9731C123.8 20.9731 123.691 21.3796 123.652 21.9362C123.615 22.5283 123.465 24.7464 123.465 26.7818C123.465 27.5949 123.576 27.7804 124.171 28.0396C125.768 28.7435 127.44 29 129.595 29M104.775 17.7563C104.775 21.1586 104.775 24.0807 104.588 25.6332C104.476 26.7054 104.253 27.5185 103.51 27.6685C103.175 27.7422 102.728 27.8159 102.173 27.8159C101.726 27.8159 101.578 27.9277 101.578 28.1105C101.578 28.3697 101.838 28.4789 102.321 28.4789C103.809 28.4789 106.148 28.367 107.002 28.367C108.044 28.367 110.383 28.4789 112.837 28.4789C113.245 28.4789 113.543 28.367 113.543 28.1105C113.543 27.925 113.359 27.8159 112.949 27.8159C112.39 27.8159 111.575 27.7422 111.053 27.6685C109.939 27.5212 109.716 26.7082 109.604 25.6714C109.417 24.0807 109.417 21.1586 109.417 17.7563V2.59197L114.099 2.70383C117.407 2.7775 118.409 3.81428 118.484 4.77467L118.521 5.1812C118.557 5.73506 118.632 5.92059 118.928 5.92059C119.152 5.92059 119.227 5.69959 119.263 5.32853C119.263 4.36814 119.375 1.81438 119.375 1.03951C119.375 0.485653 119.339 0.261925 119.076 0.261925C118.928 0.261925 118.63 0.335591 118.074 0.447455C117.516 0.521122 116.698 0.632985 115.509 0.632985H100.794C99.5684 0.632985 98.1558 0.559319 97.0782 0.447455C96.1487 0.373789 95.7774 0.00272845 95.4814 0.00272845C95.258 0.00272845 95.1464 0.223728 95.0347 0.706652C94.9594 1.00132 94.2558 4.36814 94.2558 4.9602C94.2558 5.36673 94.3311 5.55226 94.5907 5.55226C94.814 5.55226 94.9257 5.40493 94.9984 5.10753C95.0737 4.81287 95.2581 4.36814 95.6294 3.81155C96.1876 2.99849 97.0783 2.81296 99.2334 2.7393L104.769 2.59197V17.7563H104.775ZM78.5413 27.1502C71.4085 27.1502 67.1345 21.0468 67.1345 13.3554C67.1345 4.14714 72.0031 1.77891 76.2745 1.77891C82.3686 1.77891 87.1619 6.91918 87.1619 15.2053C87.1619 25.8951 81.1431 27.1529 78.5413 27.1529V27.1502ZM76.9807 29C86.4193 29 92.3629 22.3045 92.3629 13.8356C92.3629 5.36673 86.6037 0.00272845 77.3521 0.00272845C66.2049 0.00272845 62.0063 8.17697 62.0063 14.5014C62.0063 20.8258 66.3166 29 76.9807 29ZM44.0977 27.1502C36.9649 27.1502 32.6909 21.0468 32.6909 13.3554C32.6909 4.14714 37.5595 1.77891 41.8309 1.77891C47.925 1.77891 52.7183 6.91918 52.7183 15.2053C52.7183 25.8951 46.6995 27.1529 44.0977 27.1529V27.1502ZM42.5371 29C51.9757 29 57.9193 22.3045 57.9193 13.8356C57.9193 5.36673 52.1601 0.00272845 42.9084 0.00272845C31.7613 0.00272845 27.5627 8.17697 27.5627 14.5014C27.5627 20.8258 31.873 29 42.5371 29ZM8.14027 2.92483C8.14027 2.63016 8.21557 2.4801 8.47523 2.40644C8.84654 2.29457 9.51646 2.2591 10.4434 2.2591C12.6349 2.2591 16.1273 3.77608 16.1273 9.02822C16.1273 12.0622 15.0498 13.762 13.9358 14.575C13.2659 15.0552 12.783 15.2026 11.2977 15.2026C10.3681 15.2026 9.2542 15.0907 8.47263 14.8342C8.21297 14.7224 8.13767 14.575 8.13767 14.1685V2.92483H8.14027ZM3.75465 17.7563C3.75465 21.1586 3.75465 24.0807 3.5677 25.6332C3.41969 26.7054 3.23274 27.5185 2.49012 27.6685C2.15516 27.7422 1.71114 27.8159 1.15288 27.8159C0.706269 27.8159 0.558264 27.9277 0.558264 28.1105C0.558264 28.3697 0.817922 28.4789 1.30089 28.4789C2.78613 28.4789 5.12824 28.367 5.83451 28.367C6.39277 28.367 9.14255 28.4789 11.2977 28.4789C11.7807 28.4789 12.0403 28.367 12.0403 28.1105C12.0403 27.925 11.8923 27.8159 11.5937 27.8159C11.1471 27.8159 10.3292 27.7422 9.77352 27.6685C8.65959 27.5212 8.43628 26.7082 8.32463 25.6332C8.14027 24.0807 8.14027 21.1586 8.14027 17.7181V17.1997C8.14027 16.9787 8.25192 16.9051 8.43628 16.9051L11.669 16.9787C11.9287 16.9787 12.152 17.0142 12.3389 17.2379C12.8219 17.7918 14.5304 20.3074 16.0183 22.3427C18.0981 25.1912 19.5107 26.9292 21.1076 27.7804C22.0735 28.2988 23.0031 28.4816 25.0829 28.4816H28.6117C29.0583 28.4816 29.318 28.4079 29.318 28.1133C29.318 27.9277 29.17 27.8186 28.8713 27.8186C28.5727 27.8186 28.2404 27.7831 27.8301 27.7067C27.2719 27.5949 25.7503 27.3357 23.6678 25.1912C21.4763 22.8993 18.9109 19.6062 15.6054 15.4645C19.3575 12.4305 20.5104 9.91768 20.5104 7.17838C20.5104 4.70101 19.0251 2.81296 17.9839 2.11177C15.9767 0.742121 13.4892 0.521122 11.1471 0.521122C9.99423 0.521122 7.17175 0.632985 5.90721 0.632985C5.12564 0.632985 2.78613 0.521122 0.817922 0.521122C0.259658 0.521122 0 0.594788 0 0.853984C0 1.11318 0.223306 1.18685 0.630968 1.18685C1.15028 1.18685 1.78385 1.22232 2.07986 1.29871C3.30544 1.55791 3.60405 2.14997 3.67675 3.40775C3.75205 4.59187 3.75205 5.62593 3.75205 11.2491V17.7591L3.75465 17.7563Z" fill="white"/>
<path d="M8.484 38.6V47H7.284V43.256H2.46V47H1.26V38.6H2.46V42.212H7.284V38.6H8.484ZM14.7903 47.096C13.9423 47.096 13.1783 46.912 12.4983 46.544C11.8183 46.168 11.2823 45.652 10.8903 44.996C10.5063 44.34 10.3143 43.608 10.3143 42.8C10.3143 41.992 10.5063 41.26 10.8903 40.604C11.2823 39.948 11.8183 39.436 12.4983 39.068C13.1783 38.692 13.9423 38.504 14.7903 38.504C15.6303 38.504 16.3903 38.692 17.0703 39.068C17.7503 39.436 18.2823 39.948 18.6663 40.604C19.0503 41.252 19.2423 41.984 19.2423 42.8C19.2423 43.616 19.0503 44.352 18.6663 45.008C18.2823 45.656 17.7503 46.168 17.0703 46.544C16.3903 46.912 15.6303 47.096 14.7903 47.096ZM14.7903 46.028C15.4063 46.028 15.9583 45.888 16.4463 45.608C16.9423 45.328 17.3303 44.944 17.6103 44.456C17.8983 43.96 18.0423 43.408 18.0423 42.8C18.0423 42.192 17.8983 41.644 17.6103 41.156C17.3303 40.66 16.9423 40.272 16.4463 39.992C15.9583 39.712 15.4063 39.572 14.7903 39.572C14.1743 39.572 13.6143 39.712 13.1103 39.992C12.6143 40.272 12.2223 40.66 11.9343 41.156C11.6543 41.644 11.5143 42.192 11.5143 42.8C11.5143 43.408 11.6543 43.96 11.9343 44.456C12.2223 44.944 12.6143 45.328 13.1103 45.608C13.6143 45.888 14.1743 46.028 14.7903 46.028ZM22.6272 39.644H19.7472V38.6H26.6952V39.644H23.8152V47H22.6272V39.644ZM34.0982 45.956V47H28.0022V38.6H33.9302V39.644H29.2022V42.224H33.4142V43.244H29.2022V45.956H34.0982ZM36.0413 38.6H37.2413V45.956H41.7893V47H36.0413V38.6ZM49.3454 47.132L48.2294 46.016C47.4854 46.736 46.5494 47.096 45.4214 47.096C44.8614 47.096 44.3574 47.004 43.9094 46.82C43.4614 46.636 43.1094 46.38 42.8534 46.052C42.6054 45.716 42.4814 45.336 42.4814 44.912C42.4814 44.4 42.6374 43.948 42.9494 43.556C43.2694 43.156 43.7934 42.748 44.5214 42.332C44.1534 41.964 43.8934 41.632 43.7414 41.336C43.5894 41.04 43.5134 40.732 43.5134 40.412C43.5134 39.844 43.7174 39.388 44.1254 39.044C44.5414 38.7 45.0934 38.528 45.7814 38.528C46.4214 38.528 46.9294 38.684 47.3054 38.996C47.6814 39.308 47.8694 39.736 47.8694 40.28C47.8694 40.704 47.7294 41.084 47.4494 41.42C47.1774 41.756 46.7214 42.108 46.0814 42.476L48.1574 44.54C48.3974 44.084 48.5694 43.576 48.6734 43.016L49.5974 43.316C49.4534 44.052 49.2094 44.692 48.8654 45.236L49.9934 46.364L49.3454 47.132ZM45.7814 39.368C45.4054 39.368 45.1094 39.464 44.8934 39.656C44.6854 39.84 44.5814 40.084 44.5814 40.388C44.5814 40.604 44.6374 40.812 44.7494 41.012C44.8694 41.212 45.0974 41.484 45.4334 41.828C45.9854 41.516 46.3654 41.248 46.5734 41.024C46.7894 40.8 46.8974 40.556 46.8974 40.292C46.8974 40.012 46.7974 39.788 46.5974 39.62C46.4054 39.452 46.1334 39.368 45.7814 39.368ZM45.4934 46.136C46.3254 46.136 47.0094 45.872 47.5454 45.344L45.1574 42.968C44.5814 43.288 44.1774 43.588 43.9454 43.868C43.7214 44.14 43.6094 44.448 43.6094 44.792C43.6094 45.192 43.7814 45.516 44.1254 45.764C44.4774 46.012 44.9334 46.136 45.4934 46.136ZM57.044 47L55.232 44.42C55.008 44.436 54.832 44.444 54.704 44.444H52.628V47H51.428V38.6H54.704C55.792 38.6 56.648 38.86 57.272 39.38C57.896 39.9 58.208 40.616 58.208 41.528C58.208 42.176 58.048 42.728 57.728 43.184C57.408 43.64 56.952 43.972 56.36 44.18L58.352 47H57.044ZM54.668 43.424C55.428 43.424 56.008 43.26 56.408 42.932C56.808 42.604 57.008 42.136 57.008 41.528C57.008 40.92 56.808 40.456 56.408 40.136C56.008 39.808 55.428 39.644 54.668 39.644H52.628V43.424H54.668ZM66.2427 45.956V47H60.1467V38.6H66.0747V39.644H61.3467V42.224H65.5587V43.244H61.3467V45.956H66.2427ZM70.6338 47.096C70.0018 47.096 69.3898 47 68.7978 46.808C68.2138 46.608 67.7538 46.352 67.4178 46.04L67.8618 45.104C68.1818 45.392 68.5898 45.628 69.0858 45.812C69.5898 45.988 70.1058 46.076 70.6338 46.076C71.3298 46.076 71.8498 45.96 72.1938 45.728C72.5378 45.488 72.7098 45.172 72.7098 44.78C72.7098 44.492 72.6138 44.26 72.4218 44.084C72.2378 43.9 72.0058 43.76 71.7258 43.664C71.4538 43.568 71.0658 43.46 70.5618 43.34C69.9298 43.188 69.4178 43.036 69.0258 42.884C68.6418 42.732 68.3098 42.5 68.0298 42.188C67.7578 41.868 67.6218 41.44 67.6218 40.904C67.6218 40.456 67.7378 40.052 67.9698 39.692C68.2098 39.332 68.5698 39.044 69.0498 38.828C69.5298 38.612 70.1258 38.504 70.8378 38.504C71.3338 38.504 71.8218 38.568 72.3018 38.696C72.7818 38.824 73.1938 39.008 73.5378 39.248L73.1418 40.208C72.7898 39.984 72.4138 39.816 72.0138 39.704C71.6138 39.584 71.2218 39.524 70.8378 39.524C70.1578 39.524 69.6458 39.648 69.3018 39.896C68.9658 40.144 68.7978 40.464 68.7978 40.856C68.7978 41.144 68.8938 41.38 69.0858 41.564C69.2778 41.74 69.5138 41.88 69.7938 41.984C70.0818 42.08 70.4698 42.184 70.9578 42.296C71.5898 42.448 72.0978 42.6 72.4818 42.752C72.8658 42.904 73.1938 43.136 73.4658 43.448C73.7458 43.76 73.8858 44.18 73.8858 44.708C73.8858 45.148 73.7658 45.552 73.5258 45.92C73.2858 46.28 72.9218 46.568 72.4338 46.784C71.9458 46.992 71.3458 47.096 70.6338 47.096ZM77.1897 39.644H74.3097V38.6H81.2577V39.644H78.3777V47H77.1897V39.644ZM87.4948 44.9H83.0308L82.1068 47H80.8708L84.6748 38.6H85.8628L89.6788 47H88.4188L87.4948 44.9ZM87.0748 43.94L85.2628 39.824L83.4508 43.94H87.0748ZM94.2361 47.096C93.1161 47.096 92.2441 46.776 91.6201 46.136C90.9961 45.496 90.6841 44.576 90.6841 43.376V38.6H91.8841V43.328C91.8841 45.128 92.6721 46.028 94.2481 46.028C95.0161 46.028 95.6041 45.808 96.0121 45.368C96.4201 44.92 96.6241 44.24 96.6241 43.328V38.6H97.7881V43.376C97.7881 44.584 97.4761 45.508 96.8521 46.148C96.2281 46.78 95.3561 47.096 94.2361 47.096ZM105.864 47L104.052 44.42C103.828 44.436 103.652 44.444 103.524 44.444H101.448V47H100.248V38.6H103.524C104.612 38.6 105.468 38.86 106.092 39.38C106.716 39.9 107.028 40.616 107.028 41.528C107.028 42.176 106.868 42.728 106.548 43.184C106.228 43.64 105.772 43.972 105.18 44.18L107.172 47H105.864ZM103.488 43.424C104.248 43.424 104.828 43.26 105.228 42.932C105.628 42.604 105.828 42.136 105.828 41.528C105.828 40.92 105.628 40.456 105.228 40.136C104.828 39.808 104.248 39.644 103.488 39.644H101.448V43.424H103.488ZM114.319 44.9H109.855L108.931 47H107.695L111.499 38.6H112.687L116.503 47H115.243L114.319 44.9ZM113.899 43.94L112.087 39.824L110.275 43.94H113.899ZM124.98 38.6V47H123.996L118.956 40.736V47H117.756V38.6H118.74L123.78 44.864V38.6H124.98ZM129.162 39.644H126.282V38.6H133.23V39.644H130.35V47H129.162V39.644Z" fill="white"/>
</svg>
