<svg width="2690" height="1312" viewBox="0 0 2690 1312" fill="none" xmlns="http://www.w3.org/2000/svg">
<path fill-rule="evenodd" clip-rule="evenodd" d="M1919.86 122.015L1934.86 128.513L1956.88 130.005C1963.94 142.507 1968.52 149.626 1973.98 166.302C1975.42 170.675 1979.44 186.019 1979.62 187.14C1985.35 222.887 1960.09 211.249 1954.29 210.371C1953.42 210.243 1920.45 202.734 1916.97 201.71L1805.35 147.366C1783.97 134.492 1775.32 129.134 1776.75 95.8516C1808.38 97.9962 1823.93 103.681 1846.85 110.236C1875.96 118.558 1884.88 119.634 1919.86 122.009M2539.37 399.746C2527.1 406.577 2520.19 407.633 2508.64 397.659C2412.22 391.117 2361.72 346.395 2304.49 312.414C2240.65 274.504 2030.82 233.226 2016.2 205.423C2010.65 194.847 1999.18 145.273 1999.95 127.438C2023.9 127.028 2058.29 118.398 2084.37 114.263C2130.68 106.927 2136.63 123.174 2160.85 142.808C2182.34 160.233 2202.72 171.366 2224.24 188.887C2294.62 246.202 2264.15 259.665 2424.23 318.349C2471.69 335.749 2496.44 344.634 2539.57 369.357C2554.55 377.942 2561.05 380.554 2561.39 401.238L2539.38 399.746H2539.37ZM1056.97 30.58C1058.85 145.26 1094.06 120.184 1090.47 175.373C1083.92 276.238 1001.11 279.766 921.698 377.597C888.026 419.079 914.025 411.122 855.044 450.198C807.124 481.944 819.5 466.612 822.432 421.506C825.688 371.393 857.787 324.456 878.895 292.403C990.111 123.513 892.135 102.926 966.066 59.5028C987.95 46.6483 1026.17 28.4867 1056.96 30.58H1056.97ZM1783.18 162.071C1837.88 179.067 1837.87 198.842 1858.21 223.444C1931.98 312.671 1920.57 351.894 1969.27 432.485C1982.81 454.884 2067.46 574.48 2064.88 614.235C2063.3 638.677 2051.05 610.996 2057.39 646.589C2063.75 682.291 2056 670.16 2043.33 735.854C2040.28 751.666 2040.72 777.043 2027.55 776.153C1989.5 773.573 1962.7 732.615 1946.85 709.575C1903.02 645.859 1929.21 707.584 1915.87 639.63C1908.39 601.496 1841.4 492.225 1837.55 461.926C1831.78 416.621 1869.01 475.875 1875.56 485.51C1894.75 513.76 1923.97 540.564 1948.37 564.289C1963.35 578.859 1958.1 579.531 1980.87 586.605C1976.76 565.281 1963.62 557.401 1948.38 543.714C1932.3 529.265 1923.78 516.884 1909.98 500.963C1894.85 483.5 1890.66 477.38 1878.16 457.47C1866.52 438.912 1857.74 427.703 1845.89 409.24C1818.31 366.259 1831.58 336.254 1822.54 281.059C1815.66 238.993 1785.53 201.217 1783.18 162.071ZM1594.52 176.679C1611.33 154.376 1617.96 158.172 1635.68 142.533C1652.25 127.905 1654.03 112.246 1664.27 93.7071C1712.34 101.101 1775.7 206.281 1789.33 264.517C1823.3 409.599 1774.32 425.071 1863.79 573.136C1873.74 589.608 1890.78 622.256 1891.17 646.301C1775.32 638.44 1770.9 485.721 1753.32 404.682C1730.61 299.97 1658.1 259.037 1612.44 206.908C1590.4 181.756 1599.29 187.677 1594.52 176.679ZM1892.47 213.335C1957.23 217.727 1991.66 223.111 1991.38 263.627C1991.01 315.891 1996.33 348.392 1992.55 406.506C1971.07 399.055 1951.94 334.372 1944.43 310.782C1929.99 265.445 1912.19 253.135 1898.51 228.495C1890.55 214.148 1895.67 220.729 1892.47 213.342L1892.47 213.335ZM1472.11 327.343C1516.29 301.263 1522.6 261.111 1548.97 217.445C1611.74 236.951 1684 367.853 1679.67 434.616L1675.06 505.566C1670.17 580.761 1626.83 595.433 1694.56 755.418C1702.84 774.969 1710.08 783.355 1708.96 809.358C1667.51 794.98 1602.24 723.365 1605.82 641.826C1608.55 579.48 1565.78 565.736 1542.78 536.544C1525.74 514.894 1522.14 484.62 1510.37 457.605C1495.53 423.529 1479.15 423.958 1449.24 404.356C1384.01 361.592 1458.53 392.288 1373.73 363.98C1353.54 357.239 1314.68 356.394 1318.32 300.475C1318.72 294.33 1352.75 267.833 1359.79 260.817C1405.41 215.307 1431.24 110.793 1459.23 112.694C1475.94 113.828 1529.45 187.517 1529.38 188.715C1528.4 203.695 1503.89 272.173 1487.94 292.998C1472.24 313.503 1474.81 296.135 1472.1 327.35L1472.11 327.343ZM968.484 567.259C985.532 556.184 983.935 545.839 988.082 519.682C991.075 500.823 996.13 484.415 1003.85 467.636C1035.84 398.159 1094.49 378.8 1128.82 325.826C1148.02 296.193 1161.6 269.894 1182.68 241.925C1205.38 256.252 1217.62 274.1 1232.89 294.669C1206.06 339.097 1165.63 361.221 1126.58 411.289C996.167 578.488 1081.54 643.26 1078.15 695.293C1073.14 772.536 1023.8 787.074 1000.58 845.451C987.781 877.607 979.883 900.519 961.619 923.264C946.625 941.938 920.896 963.377 894.202 967.852C858.802 877.549 915.935 774.796 925.174 721.783C929.527 696.798 923.364 669.27 916.662 649.604C897.352 592.911 915.24 459.647 940.919 411.769C972.893 352.15 1057.18 311.012 1080.43 275.208C1128.4 201.351 1109.61 210.935 1127.85 177.896C1196.9 188.51 1145.73 243.033 1116.75 294.106C1107.57 310.263 1101 322.145 1090.97 334.475C1021.98 419.348 979.012 405.188 968.484 567.247V567.259ZM730.368 325.231C691.192 331.095 672.427 330.486 647.431 359.749C616.133 394.247 595.49 390.099 546.699 395.803C534.63 397.218 528.949 394.798 527.415 390.221C523.03 377.091 547.419 346.74 558.324 337.195C577.746 320.192 602.379 304.412 646.591 273.671C672.972 255.331 690.277 238.078 713.677 216.946C731.583 200.775 767.96 166.392 790.74 166.001C787.733 212.337 780.837 245.734 771.656 279.491C762.442 313.355 761.697 320.538 730.362 325.231H730.368ZM984.092 9.19196L1122.1 18.5576C1130.7 72.1398 1111.74 70.725 1146.82 109.532C1165.05 129.71 1185.13 148.909 1220.74 151.329C1255.9 104.68 1262.61 114.929 1311.95 52.3074C1323.43 37.7371 1327.96 33.0639 1351.7 34.1329C1348.89 77.434 1320.63 94.5905 1298.72 119.064C1252.07 171.148 1213.67 159.452 1252.05 220.979C1293.47 287.377 1319.59 211.063 1345.32 155.855C1367.15 109.001 1379.41 102.97 1383.74 36.3095L1460.11 41.4885C1499.38 50.2268 1511.06 133.666 1574.57 153.403C1642.11 113.527 1616.02 117.285 1650.72 54.4135C1687.57 56.9166 1684.5 64.1057 1704.85 83.0867C1723.72 100.698 1727.01 107.912 1748.28 121.33C1747.61 80.6028 1723.48 105.889 1725.48 59.4836C1817.27 65.7125 1849.35 95.2947 1937.29 101.261C1941.49 87.1325 1943.19 85.5513 1949.74 74.7005C1965.85 79.7066 1995.77 120.908 2076.22 93.1886C2088.81 88.8482 2102.21 86.6268 2116.18 85.9931L2166.85 89.4308C2235.55 100.314 2311.42 132.13 2374.78 136.426C2379.93 127.098 2382.08 119.186 2387.23 109.859C2414.75 127.22 2408.6 138.288 2449.29 141.957C2484.02 145.081 2495.68 139.14 2529.98 141.47C2513.21 161.885 2469.82 149.338 2437.44 162.602C2447.25 179.963 2471.09 192.383 2488.51 204.29C2505.32 215.775 2530.16 225.531 2553.05 233.917C2576.36 242.457 2667.27 264.338 2675.62 293.875C2612.65 257.565 2506.24 245.587 2440.09 191.07C2416.91 171.968 2408.01 155.125 2367.72 152.391C2353.95 142.475 2340.48 144.543 2320.57 145.343C2291.49 139.889 2275.55 135.625 2251.96 128.091C2231.43 121.529 2207.5 110.403 2188.25 118.29C2200.46 139.895 2230.14 151.13 2250.56 170.476C2339.53 254.78 2314.19 243.007 2450.67 299.842C2477.77 311.128 2501.23 320.711 2526.46 334.82C2582.83 366.342 2552.43 365.913 2617.01 408.011C2646.85 427.466 2608.92 415.066 2666.15 466.842C2679.44 478.865 2685.46 478.205 2689.2 497.622C2632.2 461.67 2611.61 424.034 2575.68 418.657C2558.71 406.423 2488.61 401.667 2470.2 411.5C2457.85 404.804 2415.59 395.547 2396.98 389.011C2320.83 362.258 2286.33 307.62 2208.59 300.565C2213.47 325.852 2236.69 324.61 2267.82 360.658C2290.38 386.789 2300.29 397.186 2314.55 431.928C2360.05 542.85 2390.97 533.913 2411.21 566.466C2368.29 559.865 2336.1 513.082 2318.03 480.209C2306.82 459.826 2302.13 442.708 2289.69 423.324C2268.42 390.214 2232.32 355.383 2200.86 333.182C2182.33 320.109 2169.31 309.054 2151.04 295.514C2129.57 279.612 2057.22 239.16 2029.53 250.043C2011.46 282.768 2025.56 336.19 2026.73 365.638C2028.71 415.763 2008.93 449.391 2040.48 476.701C2093.46 522.55 2157.23 549.232 2230.32 554.194C2243.72 563.847 2252.43 561.178 2272.03 562.503C2301.74 564.519 2304.07 566.542 2328.99 573.219C2354.51 580.063 2362.47 576.42 2377.41 591.579C2322.74 587.873 2317.17 576.529 2238.64 571.203L2218.29 564.34L2164.89 560.717C2164.47 561.498 2164.62 562.996 2164.6 563.373L2163.47 582.547C2144 576.497 2124.07 557.574 2107.13 545.577C2088.83 532.607 2075.01 516.782 2050.26 509.087C2050.97 552.708 2094.36 587.29 2088.62 643.369C2086.38 665.288 2072.23 684.903 2066.27 709.793C2058.77 741.078 2055.87 753.075 2053.54 788.88C2077.07 803.725 2098.72 815.843 2120.81 831.489C2181.02 874.144 2239.63 925.242 2276.43 990.379C2252.57 986.711 2253.86 977.889 2239.43 961.808C2228.39 949.504 2221.21 945.062 2209.1 932.405C2188.99 911.395 2166.68 894.616 2144.39 877.216C2002.98 766.826 2082.11 877.216 2082.76 916.945C2040.32 880.507 2059.29 824.851 2009.13 802.918C1972.09 786.722 1976.04 786.184 1947.71 764.451C1881.5 713.653 1956.52 837.359 1970.29 853.095C2023.26 913.604 2036.09 974.983 2030.13 1066.86C2010.7 1050.41 2032.81 1036.11 2016.13 976.571C1985.88 868.555 1909.02 844.222 1900.85 745.604C1893.27 654.162 1822.46 685.627 1778.2 629.176C1734.28 573.162 1723.99 481.899 1709.59 469.538C1684.77 638.203 1647.73 560.48 1722.29 771.736C1767.92 901.024 1776.27 809.192 1872.61 981.634C1922.76 1071.42 1970.51 1088.82 1984.22 1113.07C1856.54 1073.4 1849.96 906.235 1753.13 872.646C1747.7 909.526 1743.28 941.713 1740.35 986.897C1732.88 976.846 1734.06 979.605 1730.59 964.779C1713.15 890.167 1768.46 875.975 1684.57 826.048C1656.45 809.307 1646.35 798.399 1626.58 775.135C1609.71 755.29 1599.65 730.541 1586.84 707.885C1572.34 710.804 1554.88 724.242 1543.52 733.639C1515.72 756.615 1498.26 775.756 1509.22 813.059C1516.27 837.027 1517.22 844.574 1534.55 852.346C1524.75 881.864 1520.33 855.271 1515.36 894.527C1513.82 906.664 1511.71 942.635 1512.41 954.414C1513.67 975.655 1520.1 978.466 1519.62 1004.85C1519.17 1029.95 1514.34 1037.62 1511.26 1054.61C1504.15 1093.74 1521.3 1115.03 1530.78 1148.73C1543.68 1194.5 1545.08 1185.75 1541.07 1247.47L1530.4 1246.75C1533.97 1191.8 1531.22 1184.8 1515.5 1146.99C1467.3 1031.18 1495.86 1092.42 1498.01 1008.84C1498.67 983.024 1494.31 985.802 1489.55 964.593C1482.75 934.275 1492.68 893.233 1489.35 856.827C1478.56 738.671 1459.23 789.577 1543.12 697.956C1562.85 676.421 1582.86 647.421 1572.67 618.153C1566.12 599.3 1532.12 570.755 1515.96 560.563C1465.8 627.122 1436.55 692.758 1421.82 779.463C1406.12 871.884 1306.35 933.654 1307.12 968.485C1307.84 1001.01 1371.17 1045.75 1343.3 1122.11C1332.26 1152.38 1324.49 1171.73 1312.97 1198.41C1304.41 1218.25 1289.26 1252.7 1286.93 1279.57L1276.25 1278.85C1275.8 1251.7 1279.17 1243.2 1287.82 1216.06C1295.05 1193.38 1302.9 1173.79 1308.93 1152.57C1331.34 1073.68 1306.87 1067.4 1298.25 1022.7C1272.44 1023.14 1277.94 1027.35 1268.65 1052.73C1253.99 1092.77 1224.77 1125.85 1199.25 1159.59C1152.52 1221.36 1143.08 1304.77 1118.57 1312C1132.98 1288.14 1130.86 1277.4 1139.11 1247.91C1144.22 1229.64 1152.22 1209.28 1160.78 1191C1177.82 1154.61 1199.74 1129.49 1221.44 1097.43C1315.64 958.236 1202.74 964.939 1216.46 880.942C1220.43 856.635 1234.24 845.016 1240.04 819.153C1255.12 751.91 1185.71 715.183 1206.29 639.541C1218.32 595.273 1239.05 597.815 1245.04 520.226C1248.22 478.999 1270.4 396.149 1270.81 384.427C1273.12 317.625 1207.65 397.371 1196.3 410.488C1182.21 426.749 1171.11 432.773 1158.45 448.508C1147.22 462.496 1137.45 476.189 1126.4 493.294C1042.11 623.87 1136.51 675.531 1144.17 718.486C1149.83 750.168 1135.17 756.897 1151.73 783.694C1160.49 797.874 1174.73 813.302 1182.05 828.596C1205.14 876.781 1167.94 896.978 1148.65 930.267C1127.23 967.243 1155.16 1004.28 1114 1054.21C1103.88 1066.48 1086.26 1081.29 1078.93 1095.48C1062.98 1126.37 1085.17 1142.39 1054.08 1148.66C1058.79 1075.99 1074.71 1084.86 1102.4 1040.68C1130.76 995.417 1107.17 957.116 1133.34 918.277C1155.22 885.807 1185.24 864.272 1149.62 816.42C1140.57 804.269 1127.58 784.59 1124.25 767.152C1118.89 739.036 1129.7 728.07 1103.43 718.96C1094.47 779.84 1044.5 806.599 1008.32 895.621C991.752 936.375 974.108 946.015 942.542 965.611C901.461 991.109 903.328 992.389 899.2 1055.93C883.592 1042.53 890.356 1058.86 889.937 1033.37C838.967 1034.24 838.697 1132.36 791.723 1141.82C814.922 1103.4 835.152 1066.95 860.024 1027.81C877.41 1000.45 882.264 998.874 873.947 960.374C864.727 917.701 870.803 838.665 883.699 797.112C932.069 641.231 885.44 667.388 887.143 578.373C887.695 549.604 892.461 519.509 894.797 491.815C895.63 481.925 902.313 472.354 880.861 475.549C871.661 476.919 856.704 484.313 842.518 493.646C818.83 509.234 811.195 529.451 805.17 552.183C788.454 615.253 815.06 699.64 782.854 773.33C773.904 793.802 762.474 809.128 753.342 832.821C745.118 854.157 743.941 885.404 727.218 896.268C733.275 803.027 762.975 800.716 774.418 739.919C776.278 730.035 771.38 686.132 770.591 641.192C769.864 599.914 770.773 557.298 772.094 549.373C738.122 558.662 720.541 623.223 707.244 655.712C698.038 678.201 693.027 695.351 684.578 717.315C662.75 774.053 647.305 858.53 613.221 904.091C598.039 924.384 590.498 925.171 576.957 949.824C566.403 969.036 561.543 993.625 543.574 998.925C564.913 927.194 616.121 895.743 633.426 822.002L660.871 713.128C672.289 680.448 689.375 653.151 691.9 614.312C648.552 621.578 592.646 694.544 571.627 732.244C552.987 765.673 546.317 773.829 510.742 790.339C487.029 801.344 456.133 820.542 426.407 821.054C443.055 800.787 494.802 793.015 522.548 768.893C574.758 723.518 577.019 660.423 660.239 603.954C670.511 596.989 706.098 566.978 735.88 540.846C793.921 489.921 782.303 459.519 801.212 391.078C807.344 368.884 811.014 354.8 828.714 327.817C861.038 278.55 897.377 237.342 910.555 176.667C915.553 153.665 922.863 109.161 896.782 120.146C820.54 152.257 844.71 298.183 793.583 351.388C774.956 370.779 742.031 369.229 712.744 373.621C689.632 377.091 672.346 401.283 656.005 427.619C639.57 454.103 624.094 482.789 608.667 502.5L523.024 593.308C512.853 603.525 511.8 606.399 502.456 616.264C480.879 639.048 464.901 658.733 438.182 676.267C371.742 719.882 313.005 791.402 289.017 872.025C273.704 858.876 276.798 865.937 287.965 842.366C295.174 827.155 297.767 822.68 305.552 809.122C318.811 786.037 328.676 769.105 341.891 745.866C373.214 690.793 390.419 680.627 434.03 642.063C450.54 627.461 451.31 608.774 466.285 591.061C505.368 544.834 540.411 518.229 581.416 466.305C593.429 451.094 596.504 433.106 591.813 421.141C559.852 402.71 497.013 432.043 477.021 463.168C466.868 478.98 456.84 505.016 449.957 525.616C436.372 566.274 409.434 596.093 378.782 624.535C338.19 662.19 309.473 736.462 248.757 748.696C263.488 729.152 282.597 715.747 301.688 698.936C327.53 676.171 312.648 661.371 332.666 635.271C349.915 612.782 353.929 608.441 376.226 589.691C391.59 576.772 418.015 548.49 430.967 530.565C419.725 532.831 386.248 555.269 354.624 575.012C326.189 592.764 299.358 607.712 289.65 614.433C290.99 598.704 392.223 520.917 421.34 487.04C438.032 467.623 457.492 444.545 474.515 423.221C497.032 395.015 516.366 370.318 512.94 358.705C486.453 359.16 477.24 366.848 457.316 378.128C434.28 391.174 405.231 407.556 378.519 424.611C325.131 459.634 289.074 477.348 223.754 472.911L208.04 477.328C113.528 470.92 126.824 541.947 66.8039 577.38C70.1673 554.526 80.7145 550.73 92.2264 536.25C109.682 514.292 105.11 511.469 93.8298 491.508C151.608 465.108 119.722 475.786 154.308 444.686C182.135 419.662 200.417 418.516 266.526 358.449C290.17 336.971 308.421 330.627 334.833 314.898C386.479 284.145 405.426 266.591 417.852 254.806C435.902 237.681 438.445 226.651 492.766 154.549C517.995 121.062 539.258 124.954 542.947 99.8975C493.067 120.325 456.872 137.853 413.198 177.403C304.644 275.707 311.508 231.977 203.273 267.001C96.4854 301.525 49.0602 363.698 0.200684 364.531C7.2844 343.207 3.30098 352.751 22.7421 343.872L94.3934 298.35C174.813 238.609 256.298 241.951 317.051 217.753C352.157 203.771 375.681 172.006 404.373 149.427C485.081 85.9226 582.888 56.2572 683.951 41.3349C803.034 23.7494 755.722 -6.30013 865.805 1.17065C858.627 22.7892 844.985 23.6278 823.866 34.4146C700.718 97.3304 726.084 34.9012 691.079 120.127C661.473 192.21 624.551 224.859 597.782 254.165C573.982 280.22 579.763 287.755 585.744 289.099C594.92 291.154 610.027 274.805 631.246 255.337C705.541 187.178 802.577 132.681 870.615 71.3908C921.428 25.6187 945.886 11.1957 984.079 9.20477L984.092 9.19196ZM252.365 453.296C230.306 451.798 216.552 451.901 215.362 455.505C215.299 455.697 217.754 457.458 221.631 458.879C185.11 460.761 141.148 469.371 195.632 440.269C211.178 431.966 219.677 429.233 233.425 419.566C256.423 403.389 274.349 386.892 297.673 371.278C377.266 320.807 422.48 329.904 494.677 231.369C534.442 177.102 613.02 73.3433 683.92 76.5314C680.763 112.842 651.138 143.096 625.534 175.982C602.191 205.954 579.694 236.574 562.789 263.032C549.292 284.151 537.818 308.618 516.874 321.057C478.474 343.872 470.632 341.107 394.546 390.432C339.674 426.006 298.08 455.403 252.358 453.296H252.365ZM1309.84 513.684C1311.87 482.347 1314.51 465.53 1318.84 441.991C1323.16 418.478 1322.84 383.006 1345.04 384.51C1373.57 386.444 1390.51 392.384 1390.96 420.513C1470.74 406.622 1498.67 496.169 1496.36 531.813C1494.41 561.812 1416.44 642.94 1398.38 740.348C1385.55 809.57 1394.4 810.472 1356.58 855.95C1343.52 871.653 1335.3 882.255 1321.72 897.452C1304.17 917.093 1301.31 930.133 1282.54 933.916C1239.5 900.032 1286.49 873.113 1291.4 797.477C1297.07 710.196 1226.26 715.343 1283.89 612.564C1295.36 592.13 1293.9 585.069 1302.16 563.431C1314.83 530.213 1353.72 523.99 1365 490.017C1335.82 495.9 1337.9 513.203 1309.84 513.684Z" fill="#BAAFA6" fill-opacity="0.4"/>
</svg>
