<svg width="686" height="363" viewBox="0 0 686 363" fill="none" xmlns="http://www.w3.org/2000/svg">
<path fill-rule="evenodd" clip-rule="evenodd" d="M1645.82 60.0197L1662.42 66.7463L1686.78 68.2905C1694.59 81.2334 1699.66 88.6028 1705.7 105.867C1707.29 110.393 1711.73 126.279 1711.93 127.438C1718.27 164.445 1690.33 152.396 1683.91 151.488C1682.95 151.356 1646.47 143.582 1642.63 142.522L1519.15 86.2634C1495.5 72.9361 1485.93 67.3891 1487.52 32.9343C1522.5 35.1544 1539.7 41.0394 1565.05 47.8256C1597.26 56.441 1607.13 57.5544 1645.82 60.0131M2331.15 347.534C2317.58 354.606 2309.94 355.699 2297.16 345.374C2190.49 338.601 2134.63 292.303 2071.32 257.126C2000.69 217.88 1768.57 175.148 1752.4 146.366C1746.26 135.417 1733.57 84.0964 1734.42 65.633C1760.91 65.2088 1798.97 56.2753 1827.81 51.9942C1879.04 44.3994 1885.63 61.2192 1912.41 81.5449C1936.19 99.5841 1958.74 111.109 1982.55 129.247C2060.4 188.581 2026.69 202.518 2203.79 263.27C2256.28 281.282 2283.67 290.481 2331.38 316.075C2347.94 324.962 2355.14 327.666 2355.52 349.079L2331.16 347.534H2331.15ZM691.262 -34.6367C693.34 84.0831 732.286 58.1243 728.323 115.257C721.076 219.676 629.465 223.327 541.617 324.604C504.369 367.549 533.129 359.311 467.882 399.763C414.871 432.628 428.562 416.756 431.805 370.06C435.408 318.183 470.917 269.592 494.266 236.409C617.298 61.5705 508.914 40.2574 590.699 -4.69497C614.908 -18.0024 657.187 -36.8038 691.255 -34.6367H691.262ZM1494.62 101.486C1555.13 119.081 1555.13 139.553 1577.62 165.021C1659.23 257.391 1646.61 297.996 1700.49 381.426C1715.46 404.615 1809.11 528.424 1806.25 569.579C1804.5 594.882 1790.95 566.226 1797.97 603.073C1805 640.033 1796.43 627.474 1782.41 695.483C1779.04 711.852 1779.53 738.122 1764.96 737.201C1722.87 734.53 1693.21 692.129 1675.68 668.278C1627.2 602.317 1656.17 666.217 1641.41 595.869C1633.13 556.391 1559.03 443.271 1554.77 411.904C1548.39 365.004 1589.57 426.345 1596.82 436.319C1618.05 465.565 1650.37 493.313 1677.36 517.873C1693.94 532.957 1688.13 533.653 1713.32 540.976C1708.77 518.901 1694.23 510.743 1677.37 496.574C1659.58 481.616 1650.16 468.799 1634.89 452.317C1618.16 434.238 1613.53 427.903 1599.7 407.292C1586.82 388.08 1577.11 376.475 1564 357.363C1533.49 312.868 1548.17 281.806 1538.17 224.666C1530.56 181.119 1497.22 142.012 1494.62 101.486ZM1285.92 116.609C1304.52 93.5202 1311.85 97.4502 1331.45 81.2599C1349.78 66.1167 1351.76 49.9066 1363.08 30.7142C1416.26 38.3686 1486.35 147.254 1501.43 207.541C1539 357.734 1484.83 373.752 1583.8 527.032C1594.81 544.084 1613.65 577.883 1614.09 602.775C1485.93 594.636 1481.04 436.538 1461.6 352.644C1436.47 244.243 1356.26 201.868 1305.74 147.903C1281.37 121.865 1291.2 127.995 1285.92 116.609ZM1615.53 154.557C1687.16 159.103 1725.25 164.677 1724.94 206.62C1724.53 260.725 1730.42 294.371 1726.24 354.533C1702.48 346.819 1681.32 279.857 1673 255.436C1657.03 208.502 1637.34 195.758 1622.21 170.25C1613.4 155.398 1619.07 162.211 1615.52 154.563L1615.53 154.557ZM1150.51 272.581C1199.37 245.581 1206.36 204.016 1235.53 158.811C1304.97 179.005 1384.91 314.518 1380.11 383.633L1375.02 457.082C1369.61 534.925 1321.66 550.115 1396.59 715.735C1405.75 735.975 1413.76 744.656 1412.52 771.576C1366.67 756.691 1294.46 682.553 1298.42 598.142C1301.45 533.6 1254.13 519.371 1228.69 489.151C1209.83 466.738 1205.85 435.398 1192.83 407.431C1176.41 372.154 1158.29 372.599 1125.21 352.306C1053.04 308.036 1135.48 339.814 1041.67 310.508C1019.34 303.53 976.355 302.655 980.373 244.766C980.817 238.404 1018.47 210.974 1026.25 203.711C1076.72 156.598 1105.29 48.4022 1136.25 50.3705C1154.74 51.5435 1213.94 127.829 1213.86 129.069C1212.78 144.576 1185.66 215.467 1168.02 237.026C1150.64 258.253 1153.49 240.273 1150.49 272.587L1150.51 272.581ZM593.374 520.948C612.234 509.483 610.467 498.774 615.054 471.695C618.366 452.171 623.957 435.186 632.5 417.816C667.884 345.891 732.764 325.85 770.74 271.01C791.983 240.333 807.012 213.108 830.327 184.154C855.443 198.986 868.974 217.462 885.867 238.755C856.191 284.748 811.467 307.652 768.267 359.483C623.998 532.573 718.436 599.627 714.694 653.493C709.145 733.457 654.568 748.507 628.876 808.94C614.721 842.229 605.984 865.948 585.78 889.494C569.193 908.826 540.73 931.02 511.2 935.653C472.039 842.169 535.242 735.796 545.462 680.916C550.278 655.05 543.46 626.553 536.046 606.194C514.685 547.504 534.473 409.545 562.881 359.98C598.252 298.261 691.49 255.675 717.216 218.609C770.276 142.151 749.49 152.072 769.666 117.869C846.055 128.857 789.455 185.3 757.389 238.172C747.238 254.899 739.963 267.199 728.877 279.963C652.558 367.827 605.021 353.168 593.374 520.935V520.948ZM329.961 270.394C286.622 276.464 265.864 275.835 238.212 306.128C203.589 341.842 180.752 337.547 126.778 343.452C113.427 344.917 107.142 342.412 105.445 337.673C100.595 324.081 127.575 292.661 139.638 282.78C161.123 265.178 188.374 248.842 237.283 217.018C266.467 198.031 285.61 180.171 311.496 158.295C331.305 141.554 371.546 105.959 396.746 105.555C393.42 153.523 385.792 188.097 375.634 223.042C365.442 258.1 364.618 265.536 329.954 270.394H329.961ZM610.64 -56.7782L763.313 -47.0826C772.826 8.38714 751.846 6.92255 790.653 47.0967C810.823 67.9856 833.036 87.8606 872.432 90.3657C911.323 42.0732 918.743 52.6834 973.327 -12.1439C986.027 -27.2275 991.037 -32.0653 1017.3 -30.9586C1014.19 13.8678 982.937 31.6288 958.694 56.9646C907.089 110.884 864.61 98.7756 907.068 162.47C952.887 231.207 981.78 152.204 1010.24 95.0511C1034.4 46.5466 1047.96 40.3038 1052.74 -28.7053L1137.23 -23.3439C1180.67 -14.2978 1193.6 72.0812 1263.85 92.5129C1338.57 51.232 1309.71 55.1222 1348.09 -9.96359C1388.85 -7.37235 1385.46 0.0699997 1407.97 19.7197C1428.85 37.9511 1432.48 45.42 1456.01 59.3106C1455.27 17.1483 1428.58 43.3258 1430.79 -4.71484C1532.34 1.73343 1567.82 32.3577 1665.1 38.5343C1669.75 23.9081 1671.63 22.2711 1678.88 11.038C1696.71 16.2205 1729.8 58.8732 1818.8 30.1774C1832.73 25.6842 1847.55 23.3845 1863.01 22.7284L1919.06 26.2872C1995.05 37.5535 2078.99 70.4907 2149.08 74.9375C2154.77 65.2817 2157.16 57.0905 2162.85 47.4346C2193.29 65.4076 2186.48 76.8661 2231.5 80.6635C2269.92 83.8975 2282.82 77.7475 2320.77 80.1598C2302.21 101.294 2254.22 88.3046 2218.39 102.036C2229.25 120.009 2255.62 132.866 2274.89 145.193C2293.48 157.082 2320.96 167.182 2346.29 175.863C2372.08 184.704 2472.64 207.356 2481.87 237.934C2412.21 200.344 2294.5 187.945 2221.32 131.507C2195.68 111.732 2185.83 94.2956 2141.26 91.4658C2126.04 81.2003 2111.14 83.3408 2089.1 84.1692C2056.93 78.5229 2039.31 74.1091 2013.21 66.3089C1990.49 59.516 1964.03 47.998 1942.73 56.1627C1956.23 78.5295 1989.07 90.1602 2011.66 110.188C2110.08 197.461 2082.05 185.274 2233.02 244.11C2263 255.794 2288.97 265.715 2316.87 280.321C2379.23 312.954 2345.6 312.51 2417.04 356.09C2450.06 376.23 2408.09 363.393 2471.4 416.994C2486.11 429.44 2492.76 428.757 2496.9 448.858C2433.84 411.639 2411.07 372.678 2371.32 367.111C2352.54 354.447 2275 349.523 2254.63 359.702C2240.97 352.77 2194.22 343.187 2173.63 336.421C2089.4 308.725 2051.23 252.162 1965.23 244.859C1970.63 271.037 1996.31 269.751 2030.75 307.069C2055.71 334.121 2066.67 344.884 2082.44 380.849C2132.78 495.679 2166.99 486.427 2189.37 520.127C2141.89 513.294 2106.29 464.862 2086.3 430.832C2073.9 409.731 2068.71 392.01 2054.94 371.942C2031.41 337.667 1991.48 301.608 1956.67 278.625C1936.18 265.092 1921.78 253.647 1901.56 239.63C1877.82 223.168 1797.78 181.291 1767.14 192.557C1747.16 226.435 1762.76 281.74 1764.04 312.225C1766.24 364.116 1744.35 398.928 1779.26 427.2C1837.87 474.664 1908.41 502.286 1989.27 507.422C2004.09 517.416 2013.73 514.653 2035.41 516.024C2068.27 518.112 2070.86 520.206 2098.42 527.118C2126.66 534.203 2135.46 530.432 2151.99 546.125C2091.51 542.288 2085.35 530.545 1998.47 525.031L1975.96 517.926L1916.89 514.176C1916.42 514.984 1916.59 516.535 1916.57 516.926L1915.32 536.774C1893.78 530.512 1871.73 510.922 1852.99 498.502C1832.74 485.075 1817.46 468.693 1790.08 460.727C1790.87 505.885 1838.86 541.685 1832.51 599.739C1830.03 622.431 1814.39 642.737 1807.79 668.503C1799.49 700.89 1796.28 713.31 1793.71 750.376C1819.74 765.744 1843.69 778.29 1868.13 794.487C1934.73 838.644 1999.56 891.542 2040.28 958.974C2013.88 955.176 2015.31 946.044 1999.35 929.397C1987.13 916.659 1979.19 912.06 1965.79 898.958C1943.55 877.207 1918.87 859.837 1894.21 841.825C1737.77 727.545 1825.31 841.825 1826.04 882.953C1779.09 845.231 1800.07 787.614 1744.58 764.909C1703.6 748.142 1707.97 747.586 1676.63 725.086C1603.39 672.499 1686.38 800.563 1701.62 816.853C1760.21 879.494 1774.4 943.035 1767.81 1038.15C1746.32 1021.12 1770.77 1006.31 1752.33 944.679C1718.86 832.858 1633.83 807.668 1624.79 705.576C1616.41 610.913 1538.07 643.485 1489.12 585.047C1440.53 527.059 1429.15 432.581 1413.21 419.784C1385.75 594.391 1344.78 513.93 1427.26 732.628C1477.75 866.471 1486.98 771.404 1593.55 949.921C1649.04 1042.87 1701.86 1060.89 1717.02 1085.99C1575.78 1044.92 1568.5 871.866 1461.38 837.093C1455.37 875.272 1450.48 908.594 1447.24 955.368C1438.98 944.964 1440.28 947.82 1436.45 932.471C1417.16 855.231 1478.34 840.539 1385.54 788.853C1354.43 771.523 1343.26 760.23 1321.39 736.147C1302.72 715.603 1291.59 689.982 1277.43 666.528C1261.39 669.55 1242.07 683.461 1229.5 693.19C1198.75 716.975 1179.43 736.79 1191.56 775.407C1199.35 800.219 1200.41 808.032 1219.58 816.078C1208.74 846.636 1203.85 819.107 1198.35 859.745C1196.65 872.31 1194.31 909.548 1195.09 921.742C1196.48 943.731 1203.59 946.641 1203.07 973.958C1202.57 999.937 1197.23 1007.88 1193.81 1025.47C1185.95 1065.98 1204.92 1088.02 1215.41 1122.9C1229.68 1170.28 1231.23 1161.22 1226.8 1225.12L1214.98 1224.37C1218.93 1167.49 1215.9 1160.24 1198.5 1121.1C1145.19 1001.21 1176.78 1064.61 1179.16 978.08C1179.89 951.359 1175.07 954.235 1169.8 932.279C1162.27 900.893 1173.26 858.406 1169.57 820.717C1157.64 698.399 1136.25 751.098 1229.06 656.25C1250.88 633.956 1273.02 603.934 1261.75 573.635C1254.5 554.118 1216.89 524.567 1199.01 514.016C1143.53 582.92 1111.17 650.868 1094.88 740.627C1077.51 836.304 967.14 900.25 967.992 936.309C968.789 969.975 1038.84 1016.3 1008.01 1095.35C995.797 1126.68 987.198 1146.71 974.456 1174.34C964.985 1194.87 948.231 1230.54 945.647 1258.35L933.834 1257.6C933.342 1229.5 937.069 1220.7 946.638 1192.61C954.634 1169.13 963.322 1148.85 969.994 1126.87C994.778 1045.21 967.708 1038.71 958.174 992.434C929.621 992.892 935.711 997.246 925.429 1023.52C909.209 1064.98 876.887 1099.21 848.653 1134.14C796.958 1198.1 786.517 1284.44 759.405 1291.92C775.341 1267.22 772.999 1256.1 782.131 1225.57C787.785 1206.67 796.633 1185.58 806.097 1166.66C824.95 1128.99 849.2 1102.99 873.208 1069.79C977.415 925.698 852.512 932.637 867.693 845.682C872.086 820.518 887.363 808.49 893.779 781.716C910.463 712.104 833.68 674.083 856.441 595.776C869.758 549.949 892.684 552.58 899.308 472.258C902.828 429.579 927.369 343.81 927.82 331.676C930.376 262.521 857.951 345.076 845.39 358.655C829.807 375.488 817.523 381.724 803.527 398.014C791.097 412.494 780.288 426.67 768.073 444.378C674.82 579.553 779.249 633.034 787.729 677.503C793.986 710.301 777.766 717.266 796.085 745.008C805.778 759.687 821.527 775.659 829.634 791.491C855.173 841.374 814.024 862.283 792.683 896.744C768.98 935.023 799.882 973.361 754.347 1025.05C743.157 1037.75 723.66 1053.09 715.554 1067.77C697.906 1099.76 722.461 1116.34 688.061 1122.83C693.278 1047.6 710.891 1056.78 741.515 1011.04C772.888 964.189 746.795 924.539 775.75 884.331C799.951 850.718 833.161 828.424 793.75 778.886C783.739 766.308 769.369 745.936 765.689 727.883C759.759 698.776 771.717 687.424 742.658 677.993C732.744 741.018 677.467 768.72 637.44 860.878C619.114 903.067 599.596 913.047 564.676 933.333C519.231 959.729 521.295 961.055 516.729 1026.83C499.463 1012.96 506.946 1029.86 506.482 1003.48C450.096 1004.38 449.799 1105.96 397.834 1115.75C423.497 1075.98 445.877 1038.24 473.391 997.723C492.625 969.398 497.994 967.768 488.793 927.912C478.594 883.735 485.315 801.916 499.581 758.898C553.091 597.526 501.507 624.605 503.392 532.453C504.001 502.671 509.274 471.516 511.858 442.847C512.78 432.608 520.173 422.7 496.442 426.007C486.264 427.425 469.718 435.08 454.025 444.742C427.821 460.879 419.375 481.808 412.709 505.341C394.217 570.633 423.65 657.992 388.023 734.278C378.122 755.472 365.477 771.337 355.375 795.865C346.278 817.953 344.975 850.301 326.476 861.547C333.176 765.022 366.031 762.629 378.69 699.691C380.748 689.458 375.329 644.009 374.456 597.486C373.653 554.754 374.657 510.637 376.119 502.432C338.538 512.048 319.09 578.884 304.38 612.517C294.195 635.798 288.652 653.552 279.305 676.29C255.159 735.027 238.073 822.48 200.367 869.646C183.572 890.654 175.23 891.469 160.25 916.99C148.576 936.879 143.199 962.334 123.321 967.821C146.927 893.563 203.575 861.004 222.719 784.665L253.08 671.956C265.711 638.124 284.613 609.866 287.405 569.658C239.452 577.18 177.607 652.717 154.354 691.745C133.734 726.352 126.355 734.795 87.0007 751.887C60.7689 763.279 26.5899 783.154 -6.29349 783.684C12.1228 762.702 69.3673 754.657 100.061 729.686C157.818 682.712 160.32 617.394 252.381 558.936C263.744 551.725 303.112 520.657 336.058 493.605C400.266 440.885 387.413 409.413 408.331 338.561C415.114 315.585 419.174 301.005 438.754 273.071C474.513 222.068 514.713 179.409 529.291 116.596C534.82 92.7846 542.906 46.7123 514.055 58.0846C429.712 91.3266 456.45 242.394 399.891 297.472C379.286 317.546 342.862 315.943 310.464 320.489C284.897 324.081 265.774 349.125 247.697 376.389C229.516 403.806 212.395 433.503 195.33 453.908L100.588 547.915C89.3357 558.492 88.1717 561.467 77.8342 571.68C53.965 595.266 36.29 615.645 6.73236 633.797C-66.7667 678.948 -131.744 752.987 -158.28 836.45C-175.221 822.838 -171.798 830.147 -159.444 805.746C-151.469 790 -148.601 785.367 -139.989 771.331C-125.321 747.433 -114.408 729.904 -99.7886 705.847C-65.1384 648.834 -46.1055 638.31 2.1387 598.387C20.4026 583.271 21.2548 563.926 37.8212 545.588C81.056 497.733 119.822 470.191 165.184 416.437C178.473 400.691 181.875 382.069 176.685 369.683C141.328 350.603 71.8132 380.969 49.6969 413.19C38.4656 429.559 27.3728 456.512 19.7583 477.839C4.73004 519.928 -25.0701 550.797 -58.9789 580.242C-103.883 619.223 -135.651 696.112 -202.818 708.777C-186.521 688.544 -165.382 674.667 -144.264 657.264C-115.676 633.697 -132.138 618.375 -109.995 591.356C-90.913 568.075 -86.4718 563.581 -61.8058 544.17C-44.8098 530.797 -15.5778 501.518 -1.24939 482.961C-13.6863 485.307 -50.7199 508.536 -85.7027 528.974C-117.159 547.351 -146.841 562.826 -157.58 569.784C-156.098 553.501 -44.11 472.974 -11.8987 437.903C6.5661 417.803 28.0934 393.912 46.9255 371.836C71.8339 342.637 93.2227 317.069 89.4327 305.047C60.1315 305.518 49.9395 313.477 27.8994 325.154C2.41586 338.661 -29.7192 355.62 -59.2699 373.275C-118.33 409.532 -158.218 427.869 -230.477 423.277L-247.861 427.85C-352.414 421.216 -337.704 494.745 -404.102 531.426C-400.381 507.767 -388.713 503.837 -375.978 488.846C-356.668 466.115 -361.726 463.192 -374.205 442.529C-310.288 415.198 -345.562 426.252 -307.302 394.057C-276.518 368.152 -256.293 366.965 -183.161 304.782C-157.005 282.548 -136.815 275.98 -107.597 259.697C-50.4636 227.86 -29.5044 209.689 -15.758 197.488C4.21036 179.76 7.02338 168.341 67.1155 93.6992C95.0241 59.0322 118.547 63.0616 122.628 37.1227C67.4481 58.2701 27.4075 76.4154 -20.906 117.358C-140.993 219.126 -133.399 173.855 -253.133 210.113C-371.267 245.853 -423.731 310.217 -477.781 311.078C-469.945 289.003 -474.351 298.884 -452.845 289.692L-373.581 242.566C-284.617 180.721 -194.475 184.18 -127.268 159.13C-88.4326 144.656 -62.4085 111.772 -30.6684 88.3974C58.6141 22.6555 166.812 -8.05495 278.612 -23.503C410.347 -41.7079 358.008 -72.816 479.786 -65.0821C471.845 -42.702 456.755 -41.8338 433.391 -30.667C297.16 34.4652 325.221 -30.1633 286.497 58.0647C253.745 132.687 212.901 166.486 183.288 196.825C156.959 223.798 163.354 231.598 169.971 232.99C180.122 235.117 196.834 218.191 220.308 198.038C302.495 127.478 409.841 71.0606 485.107 7.61176C541.319 -39.7728 568.375 -54.7039 610.626 -56.7649L610.64 -56.7782ZM-198.827 402.971C-223.229 401.42 -238.445 401.526 -239.761 405.257C-239.83 405.456 -237.114 407.279 -232.826 408.75C-273.226 410.698 -321.859 419.612 -261.586 389.485C-244.389 380.889 -234.987 378.059 -219.779 368.052C-194.337 351.305 -174.507 334.227 -148.705 318.063C-60.6556 265.814 -10.6378 275.232 69.2288 173.226C113.219 117.047 200.146 9.63306 278.578 12.9334C275.086 50.5229 242.313 81.8431 213.989 115.887C188.166 146.916 163.278 178.614 144.578 206.004C129.647 227.867 116.953 253.196 93.7839 266.073C51.3044 289.692 42.6297 286.829 -41.5395 337.892C-102.241 374.719 -148.254 405.151 -198.834 402.971H-198.827ZM970.992 465.485C973.244 433.045 976.161 415.636 980.949 391.267C985.736 366.926 985.376 330.204 1009.93 331.762C1041.5 333.763 1060.23 339.913 1060.74 369.033C1148.99 354.652 1179.89 447.353 1177.33 484.254C1175.18 515.309 1088.92 599.295 1068.94 700.135C1054.75 771.795 1064.54 772.729 1022.7 819.809C1008.25 836.065 999.164 847.04 984.136 862.773C964.722 883.105 961.555 896.605 940.797 900.522C893.183 865.444 945.162 837.576 950.601 759.276C956.871 668.921 878.536 674.249 942.294 567.849C954.973 546.695 953.366 539.385 962.498 516.985C976.514 482.597 1019.53 476.155 1032.02 440.985C999.739 447.075 1002.04 464.988 970.992 465.485Z" fill="#D3C7BA"/>
</svg>
