<svg display="none" xmlns="http://www.w3.org/2000/svg">
	<symbol id="telegram" viewBox="0 0 20 20">
		<path d="M10 0C4.48 0 0 4.47999 0 9.99997C0 15.52 4.48 19.9999 10 19.9999C15.52 19.9999 20 15.52 20 9.99997C20 4.47999 15.52 0 10 0ZM14.64 6.79998C14.49 8.37997 13.84 12.22 13.51 13.99C13.37 14.74 13.09 14.99 12.83 15.02C12.25 15.07 11.81 14.64 11.25 14.27C10.37 13.69 9.87 13.33 9.02 12.77C8.03 12.12 8.67 11.76 9.24 11.18C9.39 11.03 11.95 8.69997 12 8.48997C12.0069 8.45817 12.006 8.42515 11.9973 8.39378C11.9886 8.36241 11.9724 8.33364 11.95 8.30998C11.89 8.25998 11.81 8.27997 11.74 8.28998C11.65 8.30997 10.25 9.23997 7.52 11.08C7.12 11.35 6.76 11.49 6.44 11.48C6.08 11.47 5.4 11.28 4.89 11.11C4.26 10.91 3.77 10.8 3.81 10.45C3.83 10.27 4.08 10.09 4.55 9.89997C7.47 8.62997 9.41 7.78998 10.38 7.38998C13.16 6.22998 13.73 6.02998 14.11 6.02998C14.19 6.02998 14.38 6.04998 14.5 6.14998C14.6 6.22998 14.63 6.33998 14.64 6.41998C14.63 6.47998 14.65 6.65998 14.64 6.79998Z"/>
	</symbol>
	<symbol id="whatsapp" viewBox="0 0 20 20">
		<path d="M17.0854 2.91005C16.164 1.98398 15.0665 1.24972 13.8569 0.750108C12.6473 0.250493 11.3499 -0.0044801 10.0402 5.95694e-05C4.55276 5.95694e-05 0.0804022 4.45005 0.0804022 9.91003C0.0804022 11.66 0.542714 13.36 1.40704 14.86L0 20L5.27638 18.62C6.73367 19.41 8.37186 19.83 10.0402 19.83C15.5276 19.83 20 15.38 20 9.92003C20 7.27004 18.9648 4.78005 17.0854 2.91005ZM10.0402 18.15C8.55276 18.15 7.09548 17.75 5.81909 17L5.51759 16.82L2.38191 17.64L3.21608 14.6L3.01508 14.29C2.18869 12.977 1.74989 11.4593 1.74874 9.91003C1.74874 5.37004 5.46734 1.67005 10.0301 1.67005C12.2412 1.67005 14.3216 2.53005 15.8794 4.09005C16.6507 4.85401 17.262 5.7627 17.6778 6.76346C18.0936 7.76422 18.3056 8.83714 18.3015 9.92003C18.3216 14.46 14.603 18.15 10.0402 18.15ZM14.5829 11.99C14.3317 11.87 13.1055 11.27 12.8844 11.18C12.6533 11.1 12.4925 11.06 12.3216 11.3C12.1508 11.55 11.6784 12.11 11.5377 12.27C11.397 12.44 11.2462 12.46 10.995 12.33C10.7437 12.21 9.9397 11.94 8.99497 11.1C8.25126 10.44 7.75879 9.63003 7.60804 9.38003C7.46734 9.13003 7.58794 9.00003 7.71859 8.87003C7.82914 8.76003 7.96985 8.58003 8.09045 8.44003C8.21105 8.30003 8.26131 8.19003 8.34171 8.03003C8.42211 7.86003 8.38191 7.72004 8.32161 7.60004C8.26131 7.48004 7.75879 6.26004 7.55779 5.76004C7.35678 5.28004 7.14573 5.34004 6.99497 5.33004H6.51256C6.34171 5.33004 6.0804 5.39004 5.84925 5.64004C5.62814 5.89004 4.98492 6.49004 4.98492 7.71004C4.98492 8.93003 5.8794 10.11 6 10.27C6.1206 10.44 7.75879 12.94 10.2513 14.01C10.8442 14.27 11.3065 14.42 11.6683 14.53C12.2613 14.72 12.804 14.69 13.2362 14.63C13.7186 14.56 14.7136 14.03 14.9146 13.45C15.1256 12.87 15.1256 12.38 15.0553 12.27C14.9849 12.16 14.8342 12.11 14.5829 11.99Z"/>
	</symbol>
	<symbol id="people" viewBox="0 0 20 20">
		<path d="M13.125 10C12.3218 10 11.5453 9.64141 10.9375 8.99063C10.3464 8.35586 9.9855 7.50938 9.92183 6.60781C9.85386 5.64609 10.1472 4.76172 10.7476 4.11719C11.348 3.47266 12.1875 3.125 13.125 3.125C14.0558 3.125 14.8976 3.47891 15.4961 4.12187C16.1003 4.77109 16.3945 5.65391 16.3265 6.60742C16.2613 7.51016 15.9007 8.35625 15.3109 8.99023C14.7046 9.64141 13.9285 10 13.125 10ZM18.2746 16.875H7.97574C7.81016 16.8759 7.64658 16.8388 7.49759 16.7665C7.34861 16.6943 7.21818 16.5888 7.11636 16.4582C7.00836 16.3167 6.93377 16.1525 6.89819 15.978C6.8626 15.8036 6.86695 15.6233 6.91089 15.4508C7.2398 14.1301 8.05464 13.0348 9.26714 12.2836C10.3433 11.6172 11.7132 11.25 13.125 11.25C14.5644 11.25 15.8984 11.6016 16.9808 12.2676C18.1961 13.0148 19.0121 14.1164 19.3394 15.4531C19.3828 15.6258 19.3867 15.806 19.3507 15.9804C19.3147 16.1548 19.2398 16.3188 19.1316 16.4602C19.0299 16.5901 18.8998 16.6951 18.7512 16.767C18.6026 16.8389 18.4396 16.8758 18.2746 16.875ZM5.74214 10.1563C4.36753 10.1563 3.15894 8.87813 3.04683 7.30742C2.99136 6.50273 3.24214 5.75859 3.74996 5.21289C4.2523 4.67266 4.96089 4.375 5.74214 4.375C6.52339 4.375 7.22652 4.67422 7.7316 5.21758C8.24332 5.76758 8.49332 6.51016 8.43472 7.3082C8.32261 8.87852 7.11441 10.1563 5.74214 10.1563ZM8.30699 11.3848C7.61988 11.0488 6.72808 10.8809 5.74253 10.8809C4.59175 10.8809 3.47417 11.1809 2.59527 11.7254C1.59878 12.3438 0.928471 13.2441 0.657768 14.3313C0.618153 14.4876 0.614406 14.6509 0.646808 14.8089C0.679209 14.9669 0.746921 15.1156 0.844877 15.2438C0.937826 15.3631 1.0569 15.4595 1.19295 15.5256C1.329 15.5917 1.47839 15.6257 1.62964 15.625H5.96558C6.03876 15.625 6.10962 15.5993 6.1658 15.5524C6.22198 15.5055 6.25992 15.4404 6.273 15.3684C6.2773 15.3438 6.28277 15.3191 6.28902 15.2949C6.62027 13.9645 7.39644 12.8402 8.54332 12.0207C8.5855 11.9903 8.61943 11.9498 8.64202 11.903C8.66462 11.8562 8.67518 11.8045 8.67274 11.7525C8.67029 11.7006 8.65493 11.6501 8.62803 11.6056C8.60113 11.5611 8.56356 11.524 8.51871 11.4977C8.45738 11.4617 8.38707 11.4238 8.30699 11.3848Z"/>
	</symbol>
	<symbol id="arrow" viewBox="0 0 20 20">
		<path d="M8.33333 17.5V15.8333H5.34167L9.09167 12.0833L7.91667 10.9083L4.16667 14.6583V11.6667H2.5V17.5H8.33333ZM12.0833 9.09167L15.8333 5.34167V8.33333H17.5V2.5H11.6667V4.16667H14.6583L10.9083 7.91667L12.0833 9.09167Z"/>
	</symbol>
	<symbol id="arrow-slider" viewBox="0 0 14 22">
  <path d="M2.60645 0L0.771484 1.83496L11.3047 12.3682L13.1397 10.5332L2.60645 0Z"/>
  <path d="M0.774662 19.3813L2.60653 21.2131L13.1576 10.6621L11.3257 8.83021L0.774662 19.3813Z"/>
	</symbol>
<symbol id="snow" viewBox="0 0 20 20">
		<path d="M17.4953 12.2371L18.2473 11.8215L17.416 10.3172L16.6641 10.7328C16.0875 11.0518 15.5766 11.4773 15.1586 11.9867L11.7188 10L15.159 8.01328C15.577 8.52267 16.0879 8.94815 16.6645 9.26719L17.4164 9.68281L18.2477 8.17852L17.4957 7.76289C17.1938 7.59614 16.9182 7.38551 16.6781 7.13789L18.75 5.93945L17.8906 4.45312L15.8203 5.64766C15.7253 5.31568 15.6803 4.97141 15.6867 4.62617L15.7027 3.7668L13.984 3.73477L13.968 4.59414C13.9558 5.2524 14.0684 5.90701 14.2996 6.52344L10.8594 8.51133V4.53828C11.5094 4.43076 12.1332 4.20106 12.6977 3.86133L13.4336 3.41797L12.5465 1.9457L11.8105 2.38906C11.5147 2.56694 11.1942 2.70002 10.8594 2.78398V0.625H9.14062V2.78398C8.80581 2.70002 8.48528 2.56694 8.18945 2.38906L7.45352 1.9457L6.56641 3.41797L7.30234 3.86133C7.86685 4.20106 8.49061 4.43076 9.14062 4.53828V8.51133L5.70039 6.52344C5.93235 5.90662 6.04541 5.25146 6.03359 4.59258L6.01758 3.7332L4.29883 3.76523L4.31484 4.62461C4.32125 4.96985 4.27622 5.31411 4.18125 5.64609L2.10938 4.45312L1.25 5.94141L3.32227 7.13828C3.08215 7.3859 2.80662 7.59653 2.50469 7.76328L1.75273 8.17852L2.58398 9.68281L3.33594 9.26719C3.91252 8.94815 4.42337 8.52267 4.84141 8.01328L8.28125 10L4.84102 11.9867C4.42298 11.4773 3.91213 11.0518 3.33555 10.7328L2.58398 10.3172L1.75273 11.8215L2.50469 12.2371C2.80662 12.4039 3.08215 12.6145 3.32227 12.8621L1.25 14.0625L2.10938 15.5508L4.18164 14.3543C4.27661 14.6863 4.32164 15.0305 4.31523 15.3758L4.29922 16.2352L6.01797 16.2672L6.03398 15.4078C6.04573 14.7488 5.93253 14.0935 5.70039 13.4766L9.14062 11.4887V15.4617C8.49061 15.5692 7.86685 15.7989 7.30234 16.1387L6.56641 16.582L7.45352 18.0543L8.18945 17.6109C8.48528 17.4331 8.80581 17.3 9.14062 17.216V19.375H10.8594V17.216C11.1942 17.3 11.5147 17.4331 11.8105 17.6109L12.5465 18.0543L13.4336 16.582L12.6977 16.1387C12.1332 15.7989 11.5094 15.5692 10.8594 15.4617V11.4887L14.2996 13.4766C14.0676 14.0934 13.9546 14.7485 13.9664 15.4074L13.9824 16.2668L15.7012 16.2348L15.6852 15.3754C15.6791 15.0296 15.7247 14.6847 15.8203 14.3523L17.8906 15.5488L18.75 14.0625L16.6797 12.8637C16.9191 12.6157 17.194 12.4045 17.4953 12.2371Z"/>
	</symbol>
	<symbol id="wifi" viewBox="0 0 20 20">
		<path d="M11.1784 16.1768C11.3335 16.0224 11.4565 15.8389 11.5405 15.6368C11.6244 15.4348 11.6676 15.2181 11.6676 14.9993C11.6676 14.7805 11.6244 14.5638 11.5405 14.3617C11.4565 14.1597 11.3335 13.9762 11.1784 13.8218C11.0241 13.6664 10.8406 13.543 10.6384 13.4587C10.4363 13.3745 10.2194 13.331 10.0004 13.3309C9.78141 13.3307 9.56452 13.3739 9.36224 13.4578C9.15996 13.5418 8.97627 13.6649 8.82174 13.8201C8.66256 13.9739 8.53559 14.1578 8.44824 14.3611C8.36089 14.5644 8.31491 14.7831 8.31299 15.0044C8.31107 15.2257 8.35324 15.4452 8.43704 15.65C8.52084 15.8549 8.64459 16.041 8.80108 16.1974C8.95757 16.3539 9.14366 16.4777 9.34848 16.5615C9.55331 16.6453 9.77278 16.6875 9.99408 16.6855C10.2154 16.6836 10.4341 16.6376 10.6374 16.5503C10.8408 16.4629 11.0247 16.336 11.1784 16.1768ZM17.0709 9.59595C16.852 9.59636 16.6352 9.55342 16.4329 9.4696C16.2307 9.38579 16.047 9.26276 15.8926 9.10762C12.6434 5.85845 7.35674 5.85928 4.10674 9.10762C3.79412 9.42024 3.37011 9.59587 2.92799 9.59587C2.48587 9.59587 2.06186 9.42024 1.74924 9.10762C1.43662 8.79499 1.26099 8.37098 1.26099 7.92887C1.26099 7.48675 1.43662 7.06274 1.74924 6.75012C6.29841 2.20178 13.7001 2.20178 18.2484 6.75012C18.4817 6.98311 18.6406 7.28005 18.705 7.60336C18.7695 7.92668 18.7366 8.26186 18.6106 8.5665C18.4845 8.87113 18.271 9.13154 17.9969 9.31479C17.7228 9.49803 17.4006 9.59588 17.0709 9.59595ZM6.46424 13.131C6.13466 13.1309 5.81249 13.0331 5.53848 12.85C5.26446 12.6668 5.05089 12.4065 4.92478 12.102C4.79866 11.7975 4.76566 11.4625 4.82993 11.1392C4.89421 10.816 5.05289 10.519 5.28591 10.286C7.88424 7.68678 12.1142 7.68678 14.7134 10.286C15.026 10.5986 15.2017 11.0226 15.2017 11.4647C15.2017 11.9068 15.026 12.3308 14.7134 12.6435C14.4008 12.9561 13.9768 13.1317 13.5347 13.1317C13.0925 13.1317 12.6685 12.9561 12.3559 12.6435C11.7302 12.0193 10.8826 11.6688 9.99882 11.6688C9.11508 11.6688 8.26741 12.0193 7.64174 12.6435C7.48732 12.7983 7.30378 12.9212 7.10169 13.0048C6.8996 13.0885 6.68296 13.1314 6.46424 13.131Z"/>
	</symbol>
	<symbol id="phone" viewBox="0 0 21 20">
		<path d="M4.5315 8.65556C6.1315 11.8 8.70928 14.3667 11.8537 15.9778L14.2982 13.5333C14.5982 13.2333 15.0426 13.1333 15.4315 13.2667C16.6759 13.6778 18.0204 13.9 19.3982 13.9C20.0093 13.9 20.5093 14.4 20.5093 15.0111V18.8889C20.5093 19.5 20.0093 20 19.3982 20C8.96483 20 0.509277 11.5444 0.509277 1.11111C0.509277 0.5 1.00928 0 1.62039 0H5.50928C6.12039 0 6.62039 0.5 6.62039 1.11111C6.62039 2.5 6.84261 3.83333 7.25372 5.07778C7.37594 5.46667 7.28705 5.9 6.97594 6.21111L4.5315 8.65556Z"/>
	</symbol>
	<symbol id="phone-contacts" viewBox="0 0 17 17">
		<path d="M3.16885 1.12063C3.00802 0.959792 2.74725 0.959791 2.58642 1.12063C0.837148 2.8699 0.640337 5.63924 2.12464 7.61831L3.30621 9.19373C4.58543 10.8994 6.10058 12.4145 7.80621 13.6937L9.38162 14.8753C11.3607 16.3596 14.13 16.1628 15.8793 14.4135C16.0401 14.2527 16.0401 13.9919 15.8793 13.8311L13.2312 11.183C13.0359 10.9877 12.7193 10.9877 12.5241 11.183L11.5029 12.2041C11.1885 12.5186 10.7081 12.5965 10.3103 12.3976C7.84021 11.1626 5.83733 9.15973 4.60229 6.68964C4.4034 6.29187 4.48136 5.81147 4.79583 5.497L5.81698 4.47586C6.01224 4.28059 6.01224 3.96401 5.81698 3.76875L3.16885 1.12063ZM1.87931 0.413519C2.43067 -0.137839 3.3246 -0.13784 3.87596 0.413518L6.52408 3.06164C7.10987 3.64743 7.10987 4.59718 6.52408 5.18296L5.50293 6.20411C5.49283 6.21422 5.49033 6.22965 5.49672 6.24243C6.63499 8.51899 8.48095 10.3649 10.7575 11.5032C10.7703 11.5096 10.7857 11.5071 10.7958 11.497L11.817 10.4759C12.4028 9.89007 13.3525 9.89007 13.9383 10.4759L16.5864 13.124C17.1378 13.6753 17.1378 14.5693 16.5864 15.1206C14.4853 17.2218 11.1588 17.4582 8.78162 15.6753L7.20621 14.4937C5.42477 13.1577 3.84228 11.5752 2.50621 9.79373L1.32464 8.21832C-0.458253 5.84112 -0.221851 2.51468 1.87931 0.413519Z"/>
	</symbol>
	<symbol id="telegram-contacts" viewBox="0 0 16 13">
		<path d="M1.53156 5.39001C5.41852 3.69655 8.01039 2.58009 9.30727 2.04072C13.0101 0.500592 13.7795 0.23305 14.281 0.224217C14.3913 0.222258 14.6379 0.249592 14.7976 0.379217C14.9326 0.488675 14.9696 0.636508 14.9874 0.7403C15.0052 0.844092 15.0273 1.08047 15.0097 1.26518C14.8091 3.37351 13.9408 8.48984 13.4991 10.8512C13.3122 11.8503 12.9442 12.1854 12.5879 12.2182C11.8136 12.2894 11.2256 11.7065 10.4757 11.2148C9.30218 10.4456 8.63923 9.96676 7.50014 9.21609C6.18372 8.34859 7.0371 7.8718 7.78735 7.09259C7.98368 6.88868 11.3952 3.78563 11.4612 3.50413C11.4695 3.46893 11.4772 3.33767 11.3992 3.26838C11.3212 3.19909 11.2062 3.2228 11.1231 3.24163C11.0054 3.26834 9.13077 4.50747 5.49906 6.95893C4.96693 7.32434 4.48497 7.50238 4.0531 7.49305C3.57706 7.48276 2.66127 7.22388 1.98052 7.00255C1.14552 6.73113 0.481849 6.58763 0.539641 6.12667C0.569766 5.88659 0.900391 5.64101 1.53156 5.39001Z"/>
	</symbol>
	<symbol id="mail-contacts" viewBox="0 0 16 12">
		<path  fill-rule="evenodd" clip-rule="evenodd" d="M0.00447622 2.99105C0.00184458 3.16902 0.000760121 3.3581 0.000313234 3.55917C0 3.70011 0 3.84695 0 4V8C0 9.88562 0 10.8284 0.585786 11.4142C1.17157 12 2.11438 12 4 12H12C13.8856 12 14.8284 12 15.4142 11.4142C16 10.8284 16 9.88562 16 8V4C16 3.84695 16 3.70011 15.9997 3.55917C15.9992 3.3581 15.9982 3.16902 15.9955 2.99105C15.9773 1.75683 15.8846 1.05619 15.4142 0.585786C14.8284 0 13.8856 0 12 0H4C2.11438 0 1.17157 0 0.585786 0.585786C0.11538 1.05619 0.0227259 1.75683 0.00447622 2.99105ZM14.9946 2.9437C14.9876 2.53013 14.9717 2.20669 14.9357 1.9387C14.8774 1.50496 14.7832 1.36902 14.7071 1.29289C14.631 1.21677 14.495 1.12262 14.0613 1.06431C13.5988 1.00212 12.9711 1 12 1H4C3.02892 1 2.40121 1.00212 1.9387 1.06431C1.50496 1.12262 1.36902 1.21677 1.29289 1.29289C1.21677 1.36902 1.12262 1.50496 1.06431 1.9387C1.02828 2.20669 1.01241 2.53013 1.00544 2.9437L7.32918 6.10557C7.75147 6.31672 8.24853 6.31672 8.67082 6.10557L14.9946 2.9437ZM1 4.05902V8C1 8.97108 1.00212 9.59879 1.06431 10.0613C1.12262 10.495 1.21677 10.631 1.29289 10.7071C1.36902 10.7832 1.50496 10.8774 1.9387 10.9357C2.40121 10.9979 3.02892 11 4 11H12C12.9711 11 13.5988 10.9979 14.0613 10.9357C14.495 10.8774 14.631 10.7832 14.7071 10.7071C14.7832 10.631 14.8774 10.495 14.9357 10.0613C14.9979 9.59879 15 8.97108 15 8V4.05902L9.11803 7C8.41422 7.35191 7.58579 7.35191 6.88197 7L1 4.05902Z"/>
	</symbol>
	<symbol id="place-contacts" viewBox="0 0 15 18">
		<path  fill-rule="evenodd" clip-rule="evenodd" d="M11.3477 13.5446C12.8322 12.0485 14 10.1875 14 8.05664C14 4.15226 10.9921 1.55664 7.5 1.55664C4.13025 1.55664 1 4.16335 1 8.05664C1 10.1875 2.16778 12.0485 3.65234 13.5446C5.09102 14.9944 6.72094 15.9918 7.5 16.4253C8.27907 15.9918 9.90898 14.9944 11.3477 13.5446ZM7.5 11.0566C9.15685 11.0566 10.5 9.71349 10.5 8.05664C10.5 6.39979 9.15685 5.05664 7.5 5.05664C5.84315 5.05664 4.5 6.39979 4.5 8.05664C4.5 9.71349 5.84315 11.0566 7.5 11.0566ZM12.5 8.05664C12.5 10.8181 10.2614 13.0566 7.5 13.0566C4.73858 13.0566 2.5 10.8181 2.5 8.05664C2.5 5.29522 4.73858 3.05664 7.5 3.05664C10.2614 3.05664 12.5 5.29522 12.5 8.05664ZM7.92489 17.333C9.51169 16.4593 15 13.0746 15 8.05664C15 3.55664 11.5 0.556641 7.5 0.556641C3.63401 0.556641 0 3.55664 0 8.05664C0 13.0746 5.48831 16.4593 7.07511 17.333C7.34317 17.4806 7.65683 17.4806 7.92489 17.333Z"/>
	</symbol>


</svg>

